<?xml version="1.0" encoding="utf-8" standalone="no"?>
<!DOCTYPE svg PUBLIC "-//W3C//DTD SVG 1.1//EN"
  "http://www.w3.org/Graphics/SVG/1.1/DTD/svg11.dtd">
<svg xmlns:xlink="http://www.w3.org/1999/xlink" width="557.599844pt" height="412.465613pt" viewBox="0 0 557.599844 412.465613" xmlns="http://www.w3.org/2000/svg" version="1.1">
 <metadata>
  <rdf:RDF xmlns:dc="http://purl.org/dc/elements/1.1/" xmlns:cc="http://creativecommons.org/ns#" xmlns:rdf="http://www.w3.org/1999/02/22-rdf-syntax-ns#">
   <cc:Work>
    <dc:type rdf:resource="http://purl.org/dc/dcmitype/StillImage"/>
    <dc:date>2026-06-24T11:38:45.320184</dc:date>
    <dc:format>image/svg+xml</dc:format>
    <dc:creator>
     <cc:Agent>
      <dc:title>Matplotlib v3.10.9, https://matplotlib.org/</dc:title>
     </cc:Agent>
    </dc:creator>
   </cc:Work>
  </rdf:RDF>
 </metadata>
 <defs>
  <style type="text/css">*{stroke-linejoin: round; stroke-linecap: butt}</style>
 </defs>
 <g id="figure_1">
  <g id="patch_1">
   <path d="M 0 412.465613 
L 557.599844 412.465613 
L 557.599844 0 
L 0 0 
z
" style="fill: #ffffff"/>
  </g>
  <g id="axes_1">
   <g id="patch_2">
    <path d="M 43.089844 365.231238 
L 550.399844 365.231238 
L 550.399844 11.320336 
L 43.089844 11.320336 
z
" style="fill: #ffffff"/>
   </g>
   <g id="matplotlib.axis_1">
    <g id="xtick_1">
     <g id="line2d_1">
      <path d="M 66.149389 365.231238 
L 66.149389 11.320336 
" clip-path="url(#p92a9175058)" style="fill: none; stroke-dasharray: 0.8,1.32; stroke-dashoffset: 0; stroke: #b0b0b0; stroke-opacity: 0.5; stroke-width: 0.8"/>
     </g>
     <g id="line2d_2">
      <defs>
       <path id="mb8aa7f4465" d="M 0 0 
L 0 3.5 
" style="stroke: #000000; stroke-width: 0.8"/>
      </defs>
      <g>
       <use xlink:href="#mb8aa7f4465" x="66.149389" y="365.231238" style="stroke: #000000; stroke-width: 0.8"/>
      </g>
     </g>
     <g id="text_1">
      <!-- 0 -->
      <g transform="translate(62.172827 381.729285) scale(0.125 -0.125)">
       <defs>
        <path id="DejaVuSans-30" d="M 2034 4250 
Q 1547 4250 1301 3770 
Q 1056 3291 1056 2328 
Q 1056 1369 1301 889 
Q 1547 409 2034 409 
Q 2525 409 2770 889 
Q 3016 1369 3016 2328 
Q 3016 3291 2770 3770 
Q 2525 4250 2034 4250 
z
M 2034 4750 
Q 2819 4750 3233 4129 
Q 3647 3509 3647 2328 
Q 3647 1150 3233 529 
Q 2819 -91 2034 -91 
Q 1250 -91 836 529 
Q 422 1150 422 2328 
Q 422 3509 836 4129 
Q 1250 4750 2034 4750 
z
" transform="scale(0.015625)"/>
       </defs>
       <use xlink:href="#DejaVuSans-30"/>
      </g>
     </g>
    </g>
    <g id="xtick_2">
     <g id="line2d_3">
      <path d="M 132.412451 365.231238 
L 132.412451 11.320336 
" clip-path="url(#p92a9175058)" style="fill: none; stroke-dasharray: 0.8,1.32; stroke-dashoffset: 0; stroke: #b0b0b0; stroke-opacity: 0.5; stroke-width: 0.8"/>
     </g>
     <g id="line2d_4">
      <g>
       <use xlink:href="#mb8aa7f4465" x="132.412451" y="365.231238" style="stroke: #000000; stroke-width: 0.8"/>
      </g>
     </g>
     <g id="text_2">
      <!-- 25 -->
      <g transform="translate(124.459326 381.729285) scale(0.125 -0.125)">
       <defs>
        <path id="DejaVuSans-32" d="M 1228 531 
L 3431 531 
L 3431 0 
L 469 0 
L 469 531 
Q 828 903 1448 1529 
Q 2069 2156 2228 2338 
Q 2531 2678 2651 2914 
Q 2772 3150 2772 3378 
Q 2772 3750 2511 3984 
Q 2250 4219 1831 4219 
Q 1534 4219 1204 4116 
Q 875 4013 500 3803 
L 500 4441 
Q 881 4594 1212 4672 
Q 1544 4750 1819 4750 
Q 2544 4750 2975 4387 
Q 3406 4025 3406 3419 
Q 3406 3131 3298 2873 
Q 3191 2616 2906 2266 
Q 2828 2175 2409 1742 
Q 1991 1309 1228 531 
z
" transform="scale(0.015625)"/>
        <path id="DejaVuSans-35" d="M 691 4666 
L 3169 4666 
L 3169 4134 
L 1269 4134 
L 1269 2991 
Q 1406 3038 1543 3061 
Q 1681 3084 1819 3084 
Q 2600 3084 3056 2656 
Q 3513 2228 3513 1497 
Q 3513 744 3044 326 
Q 2575 -91 1722 -91 
Q 1428 -91 1123 -41 
Q 819 9 494 109 
L 494 744 
Q 775 591 1075 516 
Q 1375 441 1709 441 
Q 2250 441 2565 725 
Q 2881 1009 2881 1497 
Q 2881 1984 2565 2268 
Q 2250 2553 1709 2553 
Q 1456 2553 1204 2497 
Q 953 2441 691 2322 
L 691 4666 
z
" transform="scale(0.015625)"/>
       </defs>
       <use xlink:href="#DejaVuSans-32"/>
       <use xlink:href="#DejaVuSans-35" transform="translate(63.623047 0)"/>
      </g>
     </g>
    </g>
    <g id="xtick_3">
     <g id="line2d_5">
      <path d="M 198.675513 365.231238 
L 198.675513 11.320336 
" clip-path="url(#p92a9175058)" style="fill: none; stroke-dasharray: 0.8,1.32; stroke-dashoffset: 0; stroke: #b0b0b0; stroke-opacity: 0.5; stroke-width: 0.8"/>
     </g>
     <g id="line2d_6">
      <g>
       <use xlink:href="#mb8aa7f4465" x="198.675513" y="365.231238" style="stroke: #000000; stroke-width: 0.8"/>
      </g>
     </g>
     <g id="text_3">
      <!-- 50 -->
      <g transform="translate(190.722388 381.729285) scale(0.125 -0.125)">
       <use xlink:href="#DejaVuSans-35"/>
       <use xlink:href="#DejaVuSans-30" transform="translate(63.623047 0)"/>
      </g>
     </g>
    </g>
    <g id="xtick_4">
     <g id="line2d_7">
      <path d="M 264.938574 365.231238 
L 264.938574 11.320336 
" clip-path="url(#p92a9175058)" style="fill: none; stroke-dasharray: 0.8,1.32; stroke-dashoffset: 0; stroke: #b0b0b0; stroke-opacity: 0.5; stroke-width: 0.8"/>
     </g>
     <g id="line2d_8">
      <g>
       <use xlink:href="#mb8aa7f4465" x="264.938574" y="365.231238" style="stroke: #000000; stroke-width: 0.8"/>
      </g>
     </g>
     <g id="text_4">
      <!-- 75 -->
      <g transform="translate(256.985449 381.729285) scale(0.125 -0.125)">
       <defs>
        <path id="DejaVuSans-37" d="M 525 4666 
L 3525 4666 
L 3525 4397 
L 1831 0 
L 1172 0 
L 2766 4134 
L 525 4134 
L 525 4666 
z
" transform="scale(0.015625)"/>
       </defs>
       <use xlink:href="#DejaVuSans-37"/>
       <use xlink:href="#DejaVuSans-35" transform="translate(63.623047 0)"/>
      </g>
     </g>
    </g>
    <g id="xtick_5">
     <g id="line2d_9">
      <path d="M 331.201636 365.231238 
L 331.201636 11.320336 
" clip-path="url(#p92a9175058)" style="fill: none; stroke-dasharray: 0.8,1.32; stroke-dashoffset: 0; stroke: #b0b0b0; stroke-opacity: 0.5; stroke-width: 0.8"/>
     </g>
     <g id="line2d_10">
      <g>
       <use xlink:href="#mb8aa7f4465" x="331.201636" y="365.231238" style="stroke: #000000; stroke-width: 0.8"/>
      </g>
     </g>
     <g id="text_5">
      <!-- 100 -->
      <g transform="translate(319.271948 381.729285) scale(0.125 -0.125)">
       <defs>
        <path id="DejaVuSans-31" d="M 794 531 
L 1825 531 
L 1825 4091 
L 703 3866 
L 703 4441 
L 1819 4666 
L 2450 4666 
L 2450 531 
L 3481 531 
L 3481 0 
L 794 0 
L 794 531 
z
" transform="scale(0.015625)"/>
       </defs>
       <use xlink:href="#DejaVuSans-31"/>
       <use xlink:href="#DejaVuSans-30" transform="translate(63.623047 0)"/>
       <use xlink:href="#DejaVuSans-30" transform="translate(127.246094 0)"/>
      </g>
     </g>
    </g>
    <g id="xtick_6">
     <g id="line2d_11">
      <path d="M 397.464697 365.231238 
L 397.464697 11.320336 
" clip-path="url(#p92a9175058)" style="fill: none; stroke-dasharray: 0.8,1.32; stroke-dashoffset: 0; stroke: #b0b0b0; stroke-opacity: 0.5; stroke-width: 0.8"/>
     </g>
     <g id="line2d_12">
      <g>
       <use xlink:href="#mb8aa7f4465" x="397.464697" y="365.231238" style="stroke: #000000; stroke-width: 0.8"/>
      </g>
     </g>
     <g id="text_6">
      <!-- 125 -->
      <g transform="translate(385.53501 381.729285) scale(0.125 -0.125)">
       <use xlink:href="#DejaVuSans-31"/>
       <use xlink:href="#DejaVuSans-32" transform="translate(63.623047 0)"/>
       <use xlink:href="#DejaVuSans-35" transform="translate(127.246094 0)"/>
      </g>
     </g>
    </g>
    <g id="xtick_7">
     <g id="line2d_13">
      <path d="M 463.727759 365.231238 
L 463.727759 11.320336 
" clip-path="url(#p92a9175058)" style="fill: none; stroke-dasharray: 0.8,1.32; stroke-dashoffset: 0; stroke: #b0b0b0; stroke-opacity: 0.5; stroke-width: 0.8"/>
     </g>
     <g id="line2d_14">
      <g>
       <use xlink:href="#mb8aa7f4465" x="463.727759" y="365.231238" style="stroke: #000000; stroke-width: 0.8"/>
      </g>
     </g>
     <g id="text_7">
      <!-- 150 -->
      <g transform="translate(451.798072 381.729285) scale(0.125 -0.125)">
       <use xlink:href="#DejaVuSans-31"/>
       <use xlink:href="#DejaVuSans-35" transform="translate(63.623047 0)"/>
       <use xlink:href="#DejaVuSans-30" transform="translate(127.246094 0)"/>
      </g>
     </g>
    </g>
    <g id="xtick_8">
     <g id="line2d_15">
      <path d="M 529.990821 365.231238 
L 529.990821 11.320336 
" clip-path="url(#p92a9175058)" style="fill: none; stroke-dasharray: 0.8,1.32; stroke-dashoffset: 0; stroke: #b0b0b0; stroke-opacity: 0.5; stroke-width: 0.8"/>
     </g>
     <g id="line2d_16">
      <g>
       <use xlink:href="#mb8aa7f4465" x="529.990821" y="365.231238" style="stroke: #000000; stroke-width: 0.8"/>
      </g>
     </g>
     <g id="text_8">
      <!-- 175 -->
      <g transform="translate(518.061133 381.729285) scale(0.125 -0.125)">
       <use xlink:href="#DejaVuSans-31"/>
       <use xlink:href="#DejaVuSans-37" transform="translate(63.623047 0)"/>
       <use xlink:href="#DejaVuSans-35" transform="translate(127.246094 0)"/>
      </g>
     </g>
    </g>
    <g id="text_9">
     <!-- Epoch -->
     <g transform="translate(269.950703 401.62616) scale(0.175 -0.175)">
      <defs>
       <path id="DejaVuSans-45" d="M 628 4666 
L 3578 4666 
L 3578 4134 
L 1259 4134 
L 1259 2753 
L 3481 2753 
L 3481 2222 
L 1259 2222 
L 1259 531 
L 3634 531 
L 3634 0 
L 628 0 
L 628 4666 
z
" transform="scale(0.015625)"/>
       <path id="DejaVuSans-70" d="M 1159 525 
L 1159 -1331 
L 581 -1331 
L 581 3500 
L 1159 3500 
L 1159 2969 
Q 1341 3281 1617 3432 
Q 1894 3584 2278 3584 
Q 2916 3584 3314 3078 
Q 3713 2572 3713 1747 
Q 3713 922 3314 415 
Q 2916 -91 2278 -91 
Q 1894 -91 1617 61 
Q 1341 213 1159 525 
z
M 3116 1747 
Q 3116 2381 2855 2742 
Q 2594 3103 2138 3103 
Q 1681 3103 1420 2742 
Q 1159 2381 1159 1747 
Q 1159 1113 1420 752 
Q 1681 391 2138 391 
Q 2594 391 2855 752 
Q 3116 1113 3116 1747 
z
" transform="scale(0.015625)"/>
       <path id="DejaVuSans-6f" d="M 1959 3097 
Q 1497 3097 1228 2736 
Q 959 2375 959 1747 
Q 959 1119 1226 758 
Q 1494 397 1959 397 
Q 2419 397 2687 759 
Q 2956 1122 2956 1747 
Q 2956 2369 2687 2733 
Q 2419 3097 1959 3097 
z
M 1959 3584 
Q 2709 3584 3137 3096 
Q 3566 2609 3566 1747 
Q 3566 888 3137 398 
Q 2709 -91 1959 -91 
Q 1206 -91 779 398 
Q 353 888 353 1747 
Q 353 2609 779 3096 
Q 1206 3584 1959 3584 
z
" transform="scale(0.015625)"/>
       <path id="DejaVuSans-63" d="M 3122 3366 
L 3122 2828 
Q 2878 2963 2633 3030 
Q 2388 3097 2138 3097 
Q 1578 3097 1268 2742 
Q 959 2388 959 1747 
Q 959 1106 1268 751 
Q 1578 397 2138 397 
Q 2388 397 2633 464 
Q 2878 531 3122 666 
L 3122 134 
Q 2881 22 2623 -34 
Q 2366 -91 2075 -91 
Q 1284 -91 818 406 
Q 353 903 353 1747 
Q 353 2603 823 3093 
Q 1294 3584 2113 3584 
Q 2378 3584 2631 3529 
Q 2884 3475 3122 3366 
z
" transform="scale(0.015625)"/>
       <path id="DejaVuSans-68" d="M 3513 2113 
L 3513 0 
L 2938 0 
L 2938 2094 
Q 2938 2591 2744 2837 
Q 2550 3084 2163 3084 
Q 1697 3084 1428 2787 
Q 1159 2491 1159 1978 
L 1159 0 
L 581 0 
L 581 4863 
L 1159 4863 
L 1159 2956 
Q 1366 3272 1645 3428 
Q 1925 3584 2291 3584 
Q 2894 3584 3203 3211 
Q 3513 2838 3513 2113 
z
" transform="scale(0.015625)"/>
      </defs>
      <use xlink:href="#DejaVuSans-45"/>
      <use xlink:href="#DejaVuSans-70" transform="translate(63.183594 0)"/>
      <use xlink:href="#DejaVuSans-6f" transform="translate(126.660156 0)"/>
      <use xlink:href="#DejaVuSans-63" transform="translate(187.841797 0)"/>
      <use xlink:href="#DejaVuSans-68" transform="translate(242.822266 0)"/>
     </g>
    </g>
   </g>
   <g id="matplotlib.axis_2">
    <g id="ytick_1">
     <g id="line2d_17">
      <path d="M 43.089844 325.638114 
L 550.399844 325.638114 
" clip-path="url(#p92a9175058)" style="fill: none; stroke-dasharray: 0.8,1.32; stroke-dashoffset: 0; stroke: #b0b0b0; stroke-opacity: 0.5; stroke-width: 0.8"/>
     </g>
     <g id="line2d_18">
      <defs>
       <path id="m6df83ff120" d="M 0 0 
L -3.5 0 
" style="stroke: #000000; stroke-width: 0.8"/>
      </defs>
      <g>
       <use xlink:href="#m6df83ff120" x="43.089844" y="325.638114" style="stroke: #000000; stroke-width: 0.8"/>
      </g>
     </g>
     <g id="text_10">
      <!-- 1 -->
      <g transform="translate(28.136719 330.387138) scale(0.125 -0.125)">
       <use xlink:href="#DejaVuSans-31"/>
      </g>
     </g>
    </g>
    <g id="ytick_2">
     <g id="line2d_19">
      <path d="M 43.089844 262.900296 
L 550.399844 262.900296 
" clip-path="url(#p92a9175058)" style="fill: none; stroke-dasharray: 0.8,1.32; stroke-dashoffset: 0; stroke: #b0b0b0; stroke-opacity: 0.5; stroke-width: 0.8"/>
     </g>
     <g id="line2d_20">
      <g>
       <use xlink:href="#m6df83ff120" x="43.089844" y="262.900296" style="stroke: #000000; stroke-width: 0.8"/>
      </g>
     </g>
     <g id="text_11">
      <!-- 2 -->
      <g transform="translate(28.136719 267.64932) scale(0.125 -0.125)">
       <use xlink:href="#DejaVuSans-32"/>
      </g>
     </g>
    </g>
    <g id="ytick_3">
     <g id="line2d_21">
      <path d="M 43.089844 200.162478 
L 550.399844 200.162478 
" clip-path="url(#p92a9175058)" style="fill: none; stroke-dasharray: 0.8,1.32; stroke-dashoffset: 0; stroke: #b0b0b0; stroke-opacity: 0.5; stroke-width: 0.8"/>
     </g>
     <g id="line2d_22">
      <g>
       <use xlink:href="#m6df83ff120" x="43.089844" y="200.162478" style="stroke: #000000; stroke-width: 0.8"/>
      </g>
     </g>
     <g id="text_12">
      <!-- 3 -->
      <g transform="translate(28.136719 204.911501) scale(0.125 -0.125)">
       <defs>
        <path id="DejaVuSans-33" d="M 2597 2516 
Q 3050 2419 3304 2112 
Q 3559 1806 3559 1356 
Q 3559 666 3084 287 
Q 2609 -91 1734 -91 
Q 1441 -91 1130 -33 
Q 819 25 488 141 
L 488 750 
Q 750 597 1062 519 
Q 1375 441 1716 441 
Q 2309 441 2620 675 
Q 2931 909 2931 1356 
Q 2931 1769 2642 2001 
Q 2353 2234 1838 2234 
L 1294 2234 
L 1294 2753 
L 1863 2753 
Q 2328 2753 2575 2939 
Q 2822 3125 2822 3475 
Q 2822 3834 2567 4026 
Q 2313 4219 1838 4219 
Q 1578 4219 1281 4162 
Q 984 4106 628 3988 
L 628 4550 
Q 988 4650 1302 4700 
Q 1616 4750 1894 4750 
Q 2613 4750 3031 4423 
Q 3450 4097 3450 3541 
Q 3450 3153 3228 2886 
Q 3006 2619 2597 2516 
z
" transform="scale(0.015625)"/>
       </defs>
       <use xlink:href="#DejaVuSans-33"/>
      </g>
     </g>
    </g>
    <g id="ytick_4">
     <g id="line2d_23">
      <path d="M 43.089844 137.42466 
L 550.399844 137.42466 
" clip-path="url(#p92a9175058)" style="fill: none; stroke-dasharray: 0.8,1.32; stroke-dashoffset: 0; stroke: #b0b0b0; stroke-opacity: 0.5; stroke-width: 0.8"/>
     </g>
     <g id="line2d_24">
      <g>
       <use xlink:href="#m6df83ff120" x="43.089844" y="137.42466" style="stroke: #000000; stroke-width: 0.8"/>
      </g>
     </g>
     <g id="text_13">
      <!-- 4 -->
      <g transform="translate(28.136719 142.173683) scale(0.125 -0.125)">
       <defs>
        <path id="DejaVuSans-34" d="M 2419 4116 
L 825 1625 
L 2419 1625 
L 2419 4116 
z
M 2253 4666 
L 3047 4666 
L 3047 1625 
L 3713 1625 
L 3713 1100 
L 3047 1100 
L 3047 0 
L 2419 0 
L 2419 1100 
L 313 1100 
L 313 1709 
L 2253 4666 
z
" transform="scale(0.015625)"/>
       </defs>
       <use xlink:href="#DejaVuSans-34"/>
      </g>
     </g>
    </g>
    <g id="ytick_5">
     <g id="line2d_25">
      <path d="M 43.089844 74.686842 
L 550.399844 74.686842 
" clip-path="url(#p92a9175058)" style="fill: none; stroke-dasharray: 0.8,1.32; stroke-dashoffset: 0; stroke: #b0b0b0; stroke-opacity: 0.5; stroke-width: 0.8"/>
     </g>
     <g id="line2d_26">
      <g>
       <use xlink:href="#m6df83ff120" x="43.089844" y="74.686842" style="stroke: #000000; stroke-width: 0.8"/>
      </g>
     </g>
     <g id="text_14">
      <!-- 5 -->
      <g transform="translate(28.136719 79.435865) scale(0.125 -0.125)">
       <use xlink:href="#DejaVuSans-35"/>
      </g>
     </g>
    </g>
    <g id="ytick_6">
     <g id="line2d_27">
      <path d="M 43.089844 11.949023 
L 550.399844 11.949023 
" clip-path="url(#p92a9175058)" style="fill: none; stroke-dasharray: 0.8,1.32; stroke-dashoffset: 0; stroke: #b0b0b0; stroke-opacity: 0.5; stroke-width: 0.8"/>
     </g>
     <g id="line2d_28">
      <g>
       <use xlink:href="#m6df83ff120" x="43.089844" y="11.949023" style="stroke: #000000; stroke-width: 0.8"/>
      </g>
     </g>
     <g id="text_15">
      <!-- 6 -->
      <g transform="translate(28.136719 16.698047) scale(0.125 -0.125)">
       <defs>
        <path id="DejaVuSans-36" d="M 2113 2584 
Q 1688 2584 1439 2293 
Q 1191 2003 1191 1497 
Q 1191 994 1439 701 
Q 1688 409 2113 409 
Q 2538 409 2786 701 
Q 3034 994 3034 1497 
Q 3034 2003 2786 2293 
Q 2538 2584 2113 2584 
z
M 3366 4563 
L 3366 3988 
Q 3128 4100 2886 4159 
Q 2644 4219 2406 4219 
Q 1781 4219 1451 3797 
Q 1122 3375 1075 2522 
Q 1259 2794 1537 2939 
Q 1816 3084 2150 3084 
Q 2853 3084 3261 2657 
Q 3669 2231 3669 1497 
Q 3669 778 3244 343 
Q 2819 -91 2113 -91 
Q 1303 -91 875 529 
Q 447 1150 447 2328 
Q 447 3434 972 4092 
Q 1497 4750 2381 4750 
Q 2619 4750 2861 4703 
Q 3103 4656 3366 4563 
z
" transform="scale(0.015625)"/>
       </defs>
       <use xlink:href="#DejaVuSans-36"/>
      </g>
     </g>
    </g>
    <g id="text_16">
     <!-- Loss -->
     <g transform="translate(20.497266 207.468365) rotate(-90) scale(0.175 -0.175)">
      <defs>
       <path id="DejaVuSans-4c" d="M 628 4666 
L 1259 4666 
L 1259 531 
L 3531 531 
L 3531 0 
L 628 0 
L 628 4666 
z
" transform="scale(0.015625)"/>
       <path id="DejaVuSans-73" d="M 2834 3397 
L 2834 2853 
Q 2591 2978 2328 3040 
Q 2066 3103 1784 3103 
Q 1356 3103 1142 2972 
Q 928 2841 928 2578 
Q 928 2378 1081 2264 
Q 1234 2150 1697 2047 
L 1894 2003 
Q 2506 1872 2764 1633 
Q 3022 1394 3022 966 
Q 3022 478 2636 193 
Q 2250 -91 1575 -91 
Q 1294 -91 989 -36 
Q 684 19 347 128 
L 347 722 
Q 666 556 975 473 
Q 1284 391 1588 391 
Q 1994 391 2212 530 
Q 2431 669 2431 922 
Q 2431 1156 2273 1281 
Q 2116 1406 1581 1522 
L 1381 1569 
Q 847 1681 609 1914 
Q 372 2147 372 2553 
Q 372 3047 722 3315 
Q 1072 3584 1716 3584 
Q 2034 3584 2315 3537 
Q 2597 3491 2834 3397 
z
" transform="scale(0.015625)"/>
      </defs>
      <use xlink:href="#DejaVuSans-4c"/>
      <use xlink:href="#DejaVuSans-6f" transform="translate(53.962891 0)"/>
      <use xlink:href="#DejaVuSans-73" transform="translate(115.144531 0)"/>
      <use xlink:href="#DejaVuSans-73" transform="translate(167.244141 0)"/>
     </g>
    </g>
   </g>
   <g id="line2d_29">
    <path d="M 66.149389 27.407195 
L 68.799912 45.212585 
L 71.450434 52.627616 
L 74.100957 57.431602 
L 76.751479 74.181475 
L 79.402002 85.703576 
L 82.052524 102.907211 
L 87.353569 154.638421 
L 90.004091 163.287101 
L 92.654614 175.625647 
L 95.305136 190.379722 
L 97.955659 193.98186 
L 100.606181 207.708943 
L 103.256704 207.318813 
L 105.907226 220.958019 
L 108.557749 223.45673 
L 111.208271 218.82235 
L 113.858794 221.576272 
L 116.509316 227.193966 
L 119.159839 230.183414 
L 121.810361 224.260745 
L 124.460883 224.435527 
L 127.111406 222.374095 
L 129.761928 219.346145 
L 132.412451 218.887941 
L 135.062973 225.420293 
L 137.713496 219.418436 
L 140.364018 223.452482 
L 143.014541 202.199634 
L 145.665063 202.366803 
L 148.315586 206.530129 
L 150.966108 189.389288 
L 153.616631 202.943399 
L 156.267153 194.8303 
L 158.917676 173.795538 
L 161.568198 181.000336 
L 164.21872 183.045494 
L 166.869243 180.159285 
L 169.519765 193.058272 
L 172.170288 169.818586 
L 174.82081 173.481662 
L 177.471333 154.985713 
L 180.121855 155.890738 
L 182.772378 175.46126 
L 185.4229 169.265774 
L 188.073423 174.363847 
L 190.723945 169.043575 
L 193.374468 168.02635 
L 196.02499 149.793405 
L 198.675513 166.936446 
L 201.326035 170.896809 
L 203.976557 157.587588 
L 206.62708 158.734841 
L 209.277602 153.612043 
L 211.928125 166.86028 
L 214.578647 159.130132 
L 217.22917 150.643221 
L 219.879692 145.660997 
L 222.530215 172.332644 
L 225.180737 168.423751 
L 227.83126 154.40285 
L 230.481782 157.581979 
L 233.132305 169.651582 
L 235.782827 158.670387 
L 238.433349 165.483693 
L 241.083872 159.416246 
L 243.734394 152.976438 
L 246.384917 150.711668 
L 249.035439 153.825386 
L 251.685962 152.208427 
L 254.336484 161.680687 
L 256.987007 154.591962 
L 259.637529 147.120435 
L 262.288052 161.440299 
L 264.938574 152.109121 
L 267.589097 158.407982 
L 270.239619 164.238661 
L 272.890142 172.23802 
L 275.540664 141.932929 
L 278.191186 159.545333 
L 280.841709 145.187476 
L 283.492231 151.983386 
L 286.142754 145.075023 
L 288.793276 163.43846 
L 291.443799 149.548545 
L 294.094321 149.72264 
L 296.744844 147.04424 
L 299.395366 168.439142 
L 302.045889 151.765764 
L 304.696411 164.243118 
L 307.346934 168.186908 
L 309.997456 153.108785 
L 312.647979 156.543768 
L 315.298501 160.836585 
L 317.949023 156.9034 
L 320.599546 145.575393 
L 323.250068 150.186827 
L 325.900591 149.116278 
L 328.551113 166.754124 
L 331.201636 135.929532 
L 333.852158 147.193475 
L 336.502681 148.139634 
L 339.153203 159.555459 
L 341.803726 155.074757 
L 344.454248 156.456983 
L 347.104771 145.551819 
L 352.405816 147.946498 
L 355.056338 148.639645 
L 357.70686 144.032385 
L 360.357383 156.696967 
L 363.007905 150.015111 
L 365.658428 151.471214 
L 368.30895 153.907012 
L 370.959473 142.019117 
L 373.609995 145.824726 
L 376.260518 149.035042 
L 378.91104 151.90559 
L 381.561563 152.878763 
L 384.212085 140.60153 
L 386.862608 157.423979 
L 392.163653 141.538266 
L 394.814175 172.938961 
L 397.464697 148.835564 
L 400.11522 141.511312 
L 402.765742 147.877916 
L 405.416265 149.038931 
L 408.066787 150.980461 
L 410.71731 162.316187 
L 413.367832 151.769174 
L 416.018355 165.845569 
L 418.668877 169.132843 
L 421.3194 168.103578 
L 423.969922 161.732935 
L 426.620445 152.684191 
L 429.270967 150.890235 
L 431.92149 161.142683 
L 434.572012 148.695947 
L 437.222534 154.602447 
L 439.873057 153.392491 
L 442.523579 161.305963 
L 445.174102 139.119655 
L 447.824624 163.356655 
L 450.475147 146.644641 
L 453.125669 162.945868 
L 455.776192 149.51314 
L 458.426714 162.223807 
L 461.077237 145.318282 
L 463.727759 148.944382 
L 466.378282 139.911165 
L 469.028804 147.505929 
L 471.679327 170.939154 
L 474.329849 151.289879 
L 476.980371 155.613464 
L 479.630894 154.773326 
L 482.281416 164.380925 
L 484.931939 152.797916 
L 487.582461 148.08239 
L 490.232984 153.535952 
L 492.883506 160.566461 
L 495.534029 157.064122 
L 498.184551 165.044022 
L 500.835074 150.553997 
L 503.485596 158.828582 
L 506.136119 148.681169 
L 508.786641 151.864351 
L 511.437163 144.488525 
L 514.087686 139.873935 
L 516.738208 151.028969 
L 519.388731 142.792827 
L 522.039253 143.806566 
L 524.689776 166.176826 
L 527.340298 136.658159 
L 527.340298 136.658159 
" clip-path="url(#p92a9175058)" style="fill: none; stroke: #1f77b4; stroke-width: 1.5; stroke-linecap: square"/>
   </g>
   <g id="line2d_30">
    <path d="M 66.149389 36.481801 
L 68.799912 46.040144 
L 71.450434 50.397159 
L 74.100957 57.640055 
L 79.402002 85.057157 
L 82.052524 103.390649 
L 84.703046 120.309456 
L 87.353569 136.101697 
L 90.004091 154.533387 
L 92.654614 158.324861 
L 95.305136 176.286261 
L 97.955659 183.906708 
L 100.606181 204.963069 
L 103.256704 206.812294 
L 105.907226 205.998347 
L 108.557749 207.367366 
L 111.208271 207.230023 
L 113.858794 211.294762 
L 116.509316 223.04132 
L 119.159839 219.219467 
L 121.810361 221.965655 
L 124.460883 212.962967 
L 127.111406 214.754156 
L 129.761928 219.824991 
L 132.412451 223.163256 
L 135.062973 198.10278 
L 137.713496 215.207065 
L 140.364018 208.976293 
L 143.014541 208.772163 
L 145.665063 178.812315 
L 148.315586 204.166443 
L 150.966108 199.700056 
L 153.616631 185.718509 
L 156.267153 197.593301 
L 158.917676 185.336859 
L 161.568198 185.842061 
L 164.21872 167.860827 
L 166.869243 183.956368 
L 169.519765 176.415766 
L 172.170288 172.301143 
L 174.82081 157.077121 
L 177.471333 172.823636 
L 180.121855 151.999989 
L 182.772378 167.604539 
L 185.4229 160.91631 
L 188.073423 168.210571 
L 190.723945 154.978907 
L 193.374468 146.948465 
L 196.02499 161.601919 
L 198.675513 163.467628 
L 201.326035 178.701716 
L 203.976557 153.471842 
L 206.62708 151.073678 
L 209.277602 146.971799 
L 211.928125 166.763802 
L 214.578647 168.851531 
L 217.22917 129.427589 
L 219.879692 129.952311 
L 222.530215 166.827388 
L 225.180737 156.352068 
L 227.83126 148.413109 
L 230.481782 169.988164 
L 233.132305 148.168054 
L 235.782827 141.230403 
L 238.433349 144.289406 
L 241.083872 152.829866 
L 243.734394 150.033987 
L 246.384917 150.972952 
L 249.035439 155.808515 
L 251.685962 134.755579 
L 254.336484 162.633413 
L 256.987007 145.561512 
L 259.637529 139.681846 
L 262.288052 155.107694 
L 264.938574 142.807456 
L 267.589097 143.638036 
L 270.239619 140.824238 
L 272.890142 145.201058 
L 275.540664 155.094516 
L 278.191186 146.660451 
L 280.841709 139.882924 
L 283.492231 158.718253 
L 286.142754 137.449744 
L 288.793276 139.243805 
L 291.443799 148.051413 
L 294.094321 152.552936 
L 296.744844 139.031134 
L 299.395366 158.551083 
L 302.045889 148.738053 
L 304.696411 137.961243 
L 307.346934 145.438648 
L 309.997456 151.842827 
L 312.647979 162.853772 
L 315.298501 130.980185 
L 317.949023 144.984483 
L 320.599546 141.372698 
L 323.250068 147.150934 
L 325.900591 144.542209 
L 328.551113 150.477488 
L 331.201636 152.502708 
L 333.852158 150.368565 
L 336.502681 149.895448 
L 339.153203 144.887227 
L 341.803726 141.326612 
L 344.454248 145.621433 
L 347.104771 157.883918 
L 349.755293 145.95634 
L 352.405816 148.66102 
L 355.056338 141.223523 
L 357.70686 137.007036 
L 360.357383 133.680737 
L 363.007905 136.745573 
L 365.658428 157.970763 
L 368.30895 147.887086 
L 370.959473 140.380124 
L 373.609995 141.798727 
L 376.260518 144.030246 
L 378.91104 145.771102 
L 381.561563 150.147293 
L 384.212085 136.68631 
L 386.862608 155.789294 
L 389.51313 127.479597 
L 392.163653 140.819346 
L 394.814175 141.619428 
L 397.464697 150.567908 
L 400.11522 142.707791 
L 402.765742 151.495176 
L 405.416265 140.923678 
L 408.066787 142.756883 
L 410.71731 138.591612 
L 413.367832 148.797989 
L 416.018355 145.439531 
L 418.668877 155.52638 
L 421.3194 153.024797 
L 423.969922 148.449726 
L 426.620445 148.064217 
L 429.270967 151.527844 
L 431.92149 157.575322 
L 434.572012 136.706204 
L 437.222534 141.886994 
L 439.873057 161.016348 
L 442.523579 136.270751 
L 445.174102 150.224625 
L 447.824624 153.381766 
L 450.475147 142.723602 
L 453.125669 147.991716 
L 455.776192 148.630431 
L 458.426714 149.564774 
L 461.077237 146.425044 
L 463.727759 154.554029 
L 466.378282 156.918298 
L 469.028804 131.962019 
L 471.679327 128.676435 
L 474.329849 143.283205 
L 476.980371 144.83978 
L 479.630894 145.64016 
L 482.281416 148.927061 
L 484.931939 146.070678 
L 487.582461 150.871014 
L 490.232984 147.631471 
L 492.883506 156.516904 
L 495.534029 137.896535 
L 498.184551 156.059119 
L 500.835074 144.850281 
L 503.485596 160.576857 
L 506.136119 130.05881 
L 508.786641 143.472018 
L 511.437163 146.580038 
L 514.087686 160.415731 
L 516.738208 156.763275 
L 519.388731 151.466532 
L 522.039253 140.475316 
L 524.689776 142.63004 
L 527.340298 147.21814 
L 527.340298 147.21814 
" clip-path="url(#p92a9175058)" style="fill: none; stroke: #ff7f0e; stroke-width: 1.5; stroke-linecap: square"/>
   </g>
   <g id="line2d_31">
    <path d="M 66.149389 349.144379 
L 68.799912 345.315125 
L 71.450434 336.039639 
L 74.100957 324.619491 
L 76.751479 307.97294 
L 79.402002 276.407402 
L 82.052524 240.840218 
L 84.703046 182.852119 
L 87.353569 150.607188 
L 90.004091 157.178894 
L 92.654614 147.636945 
L 95.305136 129.313281 
L 97.955659 113.286261 
L 100.606181 104.801594 
L 103.256704 113.790401 
L 105.907226 120.057296 
L 108.557749 123.22597 
L 111.208271 129.958353 
L 113.858794 132.443393 
L 116.509316 131.191809 
L 119.159839 130.10512 
L 121.810361 144.87378 
L 124.460883 152.291757 
L 127.111406 157.858026 
L 129.761928 156.491341 
L 132.412451 156.442085 
L 135.062973 161.961551 
L 137.713496 171.439091 
L 140.364018 176.504601 
L 143.014541 185.488726 
L 145.665063 191.100557 
L 148.315586 192.857956 
L 150.966108 200.495201 
L 153.616631 206.063848 
L 156.267153 210.811862 
L 158.917676 216.673743 
L 161.568198 220.586271 
L 164.21872 225.666649 
L 166.869243 229.875387 
L 169.519765 236.462201 
L 172.170288 239.74795 
L 174.82081 244.854115 
L 177.471333 247.100083 
L 180.121855 248.022878 
L 182.772378 247.058081 
L 185.4229 248.417511 
L 188.073423 250.403437 
L 190.723945 252.665888 
L 193.374468 253.841426 
L 196.02499 256.062295 
L 198.675513 256.751762 
L 201.326035 256.646295 
L 203.976557 258.854195 
L 206.62708 259.072849 
L 209.277602 260.282087 
L 211.928125 260.02737 
L 214.578647 259.911865 
L 217.22917 260.458635 
L 219.879692 261.883087 
L 222.530215 260.942895 
L 225.180737 261.759281 
L 227.83126 261.597451 
L 230.481782 262.847974 
L 233.132305 262.312078 
L 235.782827 263.017469 
L 238.433349 263.464245 
L 241.083872 264.031081 
L 243.734394 263.801388 
L 246.384917 264.807528 
L 249.035439 265.520457 
L 251.685962 265.505791 
L 254.336484 265.146922 
L 259.637529 267.972298 
L 262.288052 267.406419 
L 264.938574 268.896514 
L 267.589097 269.102184 
L 270.239619 268.083719 
L 272.890142 268.427839 
L 275.540664 270.082119 
L 278.191186 269.708673 
L 280.841709 270.247486 
L 283.492231 271.586805 
L 286.142754 270.46071 
L 288.793276 270.378718 
L 291.443799 271.120531 
L 294.094321 270.567135 
L 299.395366 270.939444 
L 302.045889 272.360979 
L 304.696411 272.141143 
L 307.346934 269.950602 
L 312.647979 271.327391 
L 315.298501 270.853242 
L 317.949023 271.679514 
L 323.250068 271.324825 
L 325.900591 271.658274 
L 328.551113 270.287079 
L 331.201636 270.766434 
L 333.852158 271.457412 
L 336.502681 271.186361 
L 339.153203 271.062113 
L 341.803726 270.30624 
L 344.454248 271.106403 
L 347.104771 271.501777 
L 349.755293 272.458048 
L 352.405816 270.807792 
L 355.056338 272.070542 
L 357.70686 271.018877 
L 360.357383 271.444578 
L 363.007905 271.101692 
L 365.658428 272.501628 
L 370.959473 272.971477 
L 373.609995 272.829751 
L 376.260518 271.736511 
L 378.91104 271.609436 
L 381.561563 273.399242 
L 384.212085 273.025445 
L 386.862608 272.093854 
L 389.51313 271.841298 
L 392.163653 272.251031 
L 394.814175 271.443367 
L 397.464697 272.325312 
L 400.11522 272.545544 
L 402.765742 271.35516 
L 408.066787 272.136626 
L 410.71731 273.103547 
L 413.367832 272.823349 
L 416.018355 271.594359 
L 418.668877 271.933371 
L 421.3194 271.733766 
L 423.969922 272.509443 
L 426.620445 271.56727 
L 429.270967 272.310653 
L 431.92149 272.819998 
L 434.572012 272.052151 
L 437.222534 272.426554 
L 439.873057 273.064769 
L 442.523579 273.108498 
L 445.174102 272.500192 
L 450.475147 272.612211 
L 453.125669 273.235722 
L 455.776192 273.101834 
L 458.426714 272.206569 
L 461.077237 272.213726 
L 463.727759 272.82548 
L 466.378282 273.180662 
L 469.028804 273.410931 
L 471.679327 273.121482 
L 474.329849 273.212979 
L 476.980371 273.136813 
L 479.630894 271.460882 
L 482.281416 273.320204 
L 484.931939 273.419255 
L 487.582461 273.240696 
L 490.232984 272.769179 
L 492.883506 273.183302 
L 495.534029 273.075666 
L 498.184551 273.416451 
L 500.835074 272.130022 
L 503.485596 273.422404 
L 506.136119 271.991228 
L 508.786641 272.538768 
L 511.437163 272.672925 
L 514.087686 274.010622 
L 516.738208 272.661438 
L 519.388731 272.020329 
L 522.039253 273.454414 
L 524.689776 273.199749 
L 527.340298 273.085089 
L 527.340298 273.085089 
" clip-path="url(#p92a9175058)" style="fill: none; stroke: #2ca02c; stroke-width: 1.5; stroke-linecap: square"/>
   </g>
   <g id="line2d_32">
    <path d="M 66.149389 348.550533 
L 68.799912 344.355709 
L 71.450434 336.155271 
L 74.100957 324.488999 
L 76.751479 306.118771 
L 79.402002 276.70294 
L 82.052524 233.916523 
L 84.703046 193.115156 
L 87.353569 173.776765 
L 90.004091 172.990027 
L 92.654614 161.57857 
L 95.305136 139.075529 
L 97.955659 120.45368 
L 100.606181 116.640532 
L 103.256704 122.447772 
L 105.907226 129.485326 
L 108.557749 131.898508 
L 111.208271 134.605013 
L 113.858794 135.239526 
L 116.509316 133.112039 
L 119.159839 137.16885 
L 121.810361 145.295486 
L 124.460883 155.898965 
L 127.111406 157.705306 
L 129.761928 156.455547 
L 132.412451 157.059067 
L 135.062973 166.007084 
L 140.364018 178.741803 
L 143.014541 188.77078 
L 145.665063 191.827015 
L 148.315586 193.710988 
L 150.966108 203.38841 
L 153.616631 208.821674 
L 156.267153 212.252528 
L 158.917676 218.156037 
L 161.568198 221.843225 
L 164.21872 227.415642 
L 166.869243 231.934651 
L 172.170288 242.205751 
L 174.82081 245.923393 
L 177.471333 247.228705 
L 180.121855 247.519965 
L 182.772378 248.152578 
L 185.4229 249.428109 
L 188.073423 251.14409 
L 190.723945 253.724979 
L 193.374468 256.119539 
L 196.02499 257.184673 
L 198.675513 257.814444 
L 201.326035 258.592297 
L 206.62708 259.926643 
L 209.277602 260.950688 
L 211.928125 261.332174 
L 214.578647 261.458882 
L 219.879692 262.205967 
L 222.530215 262.35565 
L 233.132305 264.371566 
L 238.433349 264.891158 
L 241.083872 265.423912 
L 246.384917 266.179082 
L 249.035439 266.725515 
L 251.685962 267.139481 
L 256.987007 268.80044 
L 259.637529 269.328512 
L 262.288052 269.601381 
L 264.938574 269.632336 
L 267.589097 269.886582 
L 270.239619 270.26186 
L 275.540664 271.186577 
L 280.841709 271.611657 
L 283.492231 271.676029 
L 288.793276 272.17349 
L 291.443799 272.425328 
L 294.094321 272.511238 
L 304.696411 272.163677 
L 312.647979 272.978896 
L 317.949023 272.98624 
L 320.599546 272.958314 
L 325.900591 272.637909 
L 333.852158 272.518298 
L 339.153203 272.515718 
L 341.803726 272.632546 
L 347.104771 273.03335 
L 352.405816 273.144262 
L 360.357383 273.282974 
L 365.658428 273.519211 
L 381.561563 273.730603 
L 386.862608 273.64995 
L 392.163653 273.710672 
L 423.969922 273.854641 
L 445.174102 274.151166 
L 463.727759 274.529884 
L 471.679327 274.572888 
L 503.485596 274.579978 
L 524.689776 274.643766 
L 527.340298 274.647034 
L 527.340298 274.647034 
" clip-path="url(#p92a9175058)" style="fill: none; stroke: #d62728; stroke-width: 1.5; stroke-linecap: square"/>
   </g>
   <g id="patch_3">
    <path d="M 43.089844 365.231238 
L 43.089844 11.320336 
" style="fill: none; stroke: #000000; stroke-width: 0.8; stroke-linejoin: miter; stroke-linecap: square"/>
   </g>
   <g id="patch_4">
    <path d="M 550.399844 365.231238 
L 550.399844 11.320336 
" style="fill: none; stroke: #000000; stroke-width: 0.8; stroke-linejoin: miter; stroke-linecap: square"/>
   </g>
   <g id="patch_5">
    <path d="M 43.089844 365.231238 
L 550.399844 365.231238 
" style="fill: none; stroke: #000000; stroke-width: 0.8; stroke-linejoin: miter; stroke-linecap: square"/>
   </g>
   <g id="patch_6">
    <path d="M 43.089844 11.320336 
L 550.399844 11.320336 
" style="fill: none; stroke: #000000; stroke-width: 0.8; stroke-linejoin: miter; stroke-linecap: square"/>
   </g>
   <g id="legend_1">
    <g id="patch_7">
     <path d="M 317.351406 113.057836 
L 539.899844 113.057836 
Q 542.899844 113.057836 542.899844 110.057836 
L 542.899844 21.820336 
Q 542.899844 18.820336 539.899844 18.820336 
L 317.351406 18.820336 
Q 314.351406 18.820336 314.351406 21.820336 
L 314.351406 110.057836 
Q 314.351406 113.057836 317.351406 113.057836 
z
" style="fill: #ffffff; opacity: 0.8; stroke: #cccccc; stroke-linejoin: miter"/>
    </g>
    <g id="line2d_33">
     <path d="M 320.351406 30.967993 
L 335.351406 30.967993 
L 350.351406 30.967993 
" style="fill: none; stroke: #1f77b4; stroke-width: 1.5; stroke-linecap: square"/>
    </g>
    <g id="text_17">
     <!-- reconstruction_loss -->
     <g transform="translate(362.351406 36.217993) scale(0.15 -0.15)">
      <defs>
       <path id="DejaVuSans-72" d="M 2631 2963 
Q 2534 3019 2420 3045 
Q 2306 3072 2169 3072 
Q 1681 3072 1420 2755 
Q 1159 2438 1159 1844 
L 1159 0 
L 581 0 
L 581 3500 
L 1159 3500 
L 1159 2956 
Q 1341 3275 1631 3429 
Q 1922 3584 2338 3584 
Q 2397 3584 2469 3576 
Q 2541 3569 2628 3553 
L 2631 2963 
z
" transform="scale(0.015625)"/>
       <path id="DejaVuSans-65" d="M 3597 1894 
L 3597 1613 
L 953 1613 
Q 991 1019 1311 708 
Q 1631 397 2203 397 
Q 2534 397 2845 478 
Q 3156 559 3463 722 
L 3463 178 
Q 3153 47 2828 -22 
Q 2503 -91 2169 -91 
Q 1331 -91 842 396 
Q 353 884 353 1716 
Q 353 2575 817 3079 
Q 1281 3584 2069 3584 
Q 2775 3584 3186 3129 
Q 3597 2675 3597 1894 
z
M 3022 2063 
Q 3016 2534 2758 2815 
Q 2500 3097 2075 3097 
Q 1594 3097 1305 2825 
Q 1016 2553 972 2059 
L 3022 2063 
z
" transform="scale(0.015625)"/>
       <path id="DejaVuSans-6e" d="M 3513 2113 
L 3513 0 
L 2938 0 
L 2938 2094 
Q 2938 2591 2744 2837 
Q 2550 3084 2163 3084 
Q 1697 3084 1428 2787 
Q 1159 2491 1159 1978 
L 1159 0 
L 581 0 
L 581 3500 
L 1159 3500 
L 1159 2956 
Q 1366 3272 1645 3428 
Q 1925 3584 2291 3584 
Q 2894 3584 3203 3211 
Q 3513 2838 3513 2113 
z
" transform="scale(0.015625)"/>
       <path id="DejaVuSans-74" d="M 1172 4494 
L 1172 3500 
L 2356 3500 
L 2356 3053 
L 1172 3053 
L 1172 1153 
Q 1172 725 1289 603 
Q 1406 481 1766 481 
L 2356 481 
L 2356 0 
L 1766 0 
Q 1100 0 847 248 
Q 594 497 594 1153 
L 594 3053 
L 172 3053 
L 172 3500 
L 594 3500 
L 594 4494 
L 1172 4494 
z
" transform="scale(0.015625)"/>
       <path id="DejaVuSans-75" d="M 544 1381 
L 544 3500 
L 1119 3500 
L 1119 1403 
Q 1119 906 1312 657 
Q 1506 409 1894 409 
Q 2359 409 2629 706 
Q 2900 1003 2900 1516 
L 2900 3500 
L 3475 3500 
L 3475 0 
L 2900 0 
L 2900 538 
Q 2691 219 2414 64 
Q 2138 -91 1772 -91 
Q 1169 -91 856 284 
Q 544 659 544 1381 
z
M 1991 3584 
L 1991 3584 
z
" transform="scale(0.015625)"/>
       <path id="DejaVuSans-69" d="M 603 3500 
L 1178 3500 
L 1178 0 
L 603 0 
L 603 3500 
z
M 603 4863 
L 1178 4863 
L 1178 4134 
L 603 4134 
L 603 4863 
z
" transform="scale(0.015625)"/>
       <path id="DejaVuSans-5f" d="M 3263 -1063 
L 3263 -1509 
L -63 -1509 
L -63 -1063 
L 3263 -1063 
z
" transform="scale(0.015625)"/>
       <path id="DejaVuSans-6c" d="M 603 4863 
L 1178 4863 
L 1178 0 
L 603 0 
L 603 4863 
z
" transform="scale(0.015625)"/>
      </defs>
      <use xlink:href="#DejaVuSans-72"/>
      <use xlink:href="#DejaVuSans-65" transform="translate(38.863281 0)"/>
      <use xlink:href="#DejaVuSans-63" transform="translate(100.386719 0)"/>
      <use xlink:href="#DejaVuSans-6f" transform="translate(155.367188 0)"/>
      <use xlink:href="#DejaVuSans-6e" transform="translate(216.548828 0)"/>
      <use xlink:href="#DejaVuSans-73" transform="translate(279.927734 0)"/>
      <use xlink:href="#DejaVuSans-74" transform="translate(332.027344 0)"/>
      <use xlink:href="#DejaVuSans-72" transform="translate(371.236328 0)"/>
      <use xlink:href="#DejaVuSans-75" transform="translate(412.349609 0)"/>
      <use xlink:href="#DejaVuSans-63" transform="translate(475.728516 0)"/>
      <use xlink:href="#DejaVuSans-74" transform="translate(530.708984 0)"/>
      <use xlink:href="#DejaVuSans-69" transform="translate(569.917969 0)"/>
      <use xlink:href="#DejaVuSans-6f" transform="translate(597.701172 0)"/>
      <use xlink:href="#DejaVuSans-6e" transform="translate(658.882812 0)"/>
      <use xlink:href="#DejaVuSans-5f" transform="translate(722.261719 0)"/>
      <use xlink:href="#DejaVuSans-6c" transform="translate(772.261719 0)"/>
      <use xlink:href="#DejaVuSans-6f" transform="translate(800.044922 0)"/>
      <use xlink:href="#DejaVuSans-73" transform="translate(861.226562 0)"/>
      <use xlink:href="#DejaVuSans-73" transform="translate(913.326172 0)"/>
     </g>
    </g>
    <g id="line2d_34">
     <path d="M 320.351406 53.402368 
L 335.351406 53.402368 
L 350.351406 53.402368 
" style="fill: none; stroke: #ff7f0e; stroke-width: 1.5; stroke-linecap: square"/>
    </g>
    <g id="text_18">
     <!-- val_reconstruction_loss -->
     <g transform="translate(362.351406 58.652368) scale(0.15 -0.15)">
      <defs>
       <path id="DejaVuSans-76" d="M 191 3500 
L 800 3500 
L 1894 563 
L 2988 3500 
L 3597 3500 
L 2284 0 
L 1503 0 
L 191 3500 
z
" transform="scale(0.015625)"/>
       <path id="DejaVuSans-61" d="M 2194 1759 
Q 1497 1759 1228 1600 
Q 959 1441 959 1056 
Q 959 750 1161 570 
Q 1363 391 1709 391 
Q 2188 391 2477 730 
Q 2766 1069 2766 1631 
L 2766 1759 
L 2194 1759 
z
M 3341 1997 
L 3341 0 
L 2766 0 
L 2766 531 
Q 2569 213 2275 61 
Q 1981 -91 1556 -91 
Q 1019 -91 701 211 
Q 384 513 384 1019 
Q 384 1609 779 1909 
Q 1175 2209 1959 2209 
L 2766 2209 
L 2766 2266 
Q 2766 2663 2505 2880 
Q 2244 3097 1772 3097 
Q 1472 3097 1187 3025 
Q 903 2953 641 2809 
L 641 3341 
Q 956 3463 1253 3523 
Q 1550 3584 1831 3584 
Q 2591 3584 2966 3190 
Q 3341 2797 3341 1997 
z
" transform="scale(0.015625)"/>
      </defs>
      <use xlink:href="#DejaVuSans-76"/>
      <use xlink:href="#DejaVuSans-61" transform="translate(59.179688 0)"/>
      <use xlink:href="#DejaVuSans-6c" transform="translate(120.458984 0)"/>
      <use xlink:href="#DejaVuSans-5f" transform="translate(148.242188 0)"/>
      <use xlink:href="#DejaVuSans-72" transform="translate(198.242188 0)"/>
      <use xlink:href="#DejaVuSans-65" transform="translate(237.105469 0)"/>
      <use xlink:href="#DejaVuSans-63" transform="translate(298.628906 0)"/>
      <use xlink:href="#DejaVuSans-6f" transform="translate(353.609375 0)"/>
      <use xlink:href="#DejaVuSans-6e" transform="translate(414.791016 0)"/>
      <use xlink:href="#DejaVuSans-73" transform="translate(478.169922 0)"/>
      <use xlink:href="#DejaVuSans-74" transform="translate(530.269531 0)"/>
      <use xlink:href="#DejaVuSans-72" transform="translate(569.478516 0)"/>
      <use xlink:href="#DejaVuSans-75" transform="translate(610.591797 0)"/>
      <use xlink:href="#DejaVuSans-63" transform="translate(673.970703 0)"/>
      <use xlink:href="#DejaVuSans-74" transform="translate(728.951172 0)"/>
      <use xlink:href="#DejaVuSans-69" transform="translate(768.160156 0)"/>
      <use xlink:href="#DejaVuSans-6f" transform="translate(795.943359 0)"/>
      <use xlink:href="#DejaVuSans-6e" transform="translate(857.125 0)"/>
      <use xlink:href="#DejaVuSans-5f" transform="translate(920.503906 0)"/>
      <use xlink:href="#DejaVuSans-6c" transform="translate(970.503906 0)"/>
      <use xlink:href="#DejaVuSans-6f" transform="translate(998.287109 0)"/>
      <use xlink:href="#DejaVuSans-73" transform="translate(1059.46875 0)"/>
      <use xlink:href="#DejaVuSans-73" transform="translate(1111.568359 0)"/>
     </g>
    </g>
    <g id="line2d_35">
     <path d="M 320.351406 75.836743 
L 335.351406 75.836743 
L 350.351406 75.836743 
" style="fill: none; stroke: #2ca02c; stroke-width: 1.5; stroke-linecap: square"/>
    </g>
    <g id="text_19">
     <!-- kl_loss -->
     <g transform="translate(362.351406 81.086743) scale(0.15 -0.15)">
      <defs>
       <path id="DejaVuSans-6b" d="M 581 4863 
L 1159 4863 
L 1159 1991 
L 2875 3500 
L 3609 3500 
L 1753 1863 
L 3688 0 
L 2938 0 
L 1159 1709 
L 1159 0 
L 581 0 
L 581 4863 
z
" transform="scale(0.015625)"/>
      </defs>
      <use xlink:href="#DejaVuSans-6b"/>
      <use xlink:href="#DejaVuSans-6c" transform="translate(57.910156 0)"/>
      <use xlink:href="#DejaVuSans-5f" transform="translate(85.693359 0)"/>
      <use xlink:href="#DejaVuSans-6c" transform="translate(135.693359 0)"/>
      <use xlink:href="#DejaVuSans-6f" transform="translate(163.476562 0)"/>
      <use xlink:href="#DejaVuSans-73" transform="translate(224.658203 0)"/>
      <use xlink:href="#DejaVuSans-73" transform="translate(276.757812 0)"/>
     </g>
    </g>
    <g id="line2d_36">
     <path d="M 320.351406 98.271118 
L 335.351406 98.271118 
L 350.351406 98.271118 
" style="fill: none; stroke: #d62728; stroke-width: 1.5; stroke-linecap: square"/>
    </g>
    <g id="text_20">
     <!-- val_kl_loss -->
     <g transform="translate(362.351406 103.521118) scale(0.15 -0.15)">
      <use xlink:href="#DejaVuSans-76"/>
      <use xlink:href="#DejaVuSans-61" transform="translate(59.179688 0)"/>
      <use xlink:href="#DejaVuSans-6c" transform="translate(120.458984 0)"/>
      <use xlink:href="#DejaVuSans-5f" transform="translate(148.242188 0)"/>
      <use xlink:href="#DejaVuSans-6b" transform="translate(198.242188 0)"/>
      <use xlink:href="#DejaVuSans-6c" transform="translate(256.152344 0)"/>
      <use xlink:href="#DejaVuSans-5f" transform="translate(283.935547 0)"/>
      <use xlink:href="#DejaVuSans-6c" transform="translate(333.935547 0)"/>
      <use xlink:href="#DejaVuSans-6f" transform="translate(361.71875 0)"/>
      <use xlink:href="#DejaVuSans-73" transform="translate(422.900391 0)"/>
      <use xlink:href="#DejaVuSans-73" transform="translate(475 0)"/>
     </g>
    </g>
   </g>
  </g>
 </g>
 <defs>
  <clipPath id="p92a9175058">
   <rect x="43.089844" y="11.320336" width="507.31" height="353.910902"/>
  </clipPath>
 </defs>
</svg>
