<?xml version="1.0" encoding="utf-8" standalone="no"?>
<!DOCTYPE svg PUBLIC "-//W3C//DTD SVG 1.1//EN"
  "http://www.w3.org/Graphics/SVG/1.1/DTD/svg11.dtd">
<svg xmlns:xlink="http://www.w3.org/1999/xlink" width="568.370625pt" height="423.758673pt" viewBox="0 0 568.370625 423.758673" xmlns="http://www.w3.org/2000/svg" version="1.1">
 <metadata>
  <rdf:RDF xmlns:dc="http://purl.org/dc/elements/1.1/" xmlns:cc="http://creativecommons.org/ns#" xmlns:rdf="http://www.w3.org/1999/02/22-rdf-syntax-ns#">
   <cc:Work>
    <dc:type rdf:resource="http://purl.org/dc/dcmitype/StillImage"/>
    <dc:date>2026-06-23T10:20:18.439966</dc:date>
    <dc:format>image/svg+xml</dc:format>
    <dc:creator>
     <cc:Agent>
      <dc:title>Matplotlib v3.10.9, https://matplotlib.org/</dc:title>
     </cc:Agent>
    </dc:creator>
   </cc:Work>
  </rdf:RDF>
 </metadata>
 <defs>
  <style type="text/css">*{stroke-linejoin: round; stroke-linecap: butt}</style>
 </defs>
 <g id="figure_1">
  <g id="patch_1">
   <path d="M 0 423.758673 
L 568.370625 423.758673 
L 568.370625 0 
L 0 0 
z
" style="fill: #ffffff"/>
  </g>
  <g id="axes_1">
   <g id="patch_2">
    <path d="M 34.240625 386.202423 
L 561.170625 386.202423 
L 561.170625 10.331522 
L 34.240625 10.331522 
z
" style="fill: #ffffff"/>
   </g>
   <g id="matplotlib.axis_1">
    <g id="xtick_1">
     <g id="line2d_1">
      <path d="M 58.191989 386.202423 
L 58.191989 10.331522 
" clip-path="url(#pf0d718f25e)" style="fill: none; stroke-dasharray: 0.8,1.32; stroke-dashoffset: 0; stroke: #b0b0b0; stroke-opacity: 0.5; stroke-width: 0.8"/>
     </g>
     <g id="line2d_2">
      <defs>
       <path id="mf75be7d9f4" d="M 0 0 
L 0 3.5 
" style="stroke: #000000; stroke-width: 0.8"/>
      </defs>
      <g>
       <use xlink:href="#mf75be7d9f4" x="58.191989" y="386.202423" style="stroke: #000000; stroke-width: 0.8"/>
      </g>
     </g>
     <g id="text_1">
      <!-- 0 -->
      <g transform="translate(55.010739 400.800861) scale(0.1 -0.1)">
       <defs>
        <path id="DejaVuSans-30" d="M 2034 4250 
Q 1547 4250 1301 3770 
Q 1056 3291 1056 2328 
Q 1056 1369 1301 889 
Q 1547 409 2034 409 
Q 2525 409 2770 889 
Q 3016 1369 3016 2328 
Q 3016 3291 2770 3770 
Q 2525 4250 2034 4250 
z
M 2034 4750 
Q 2819 4750 3233 4129 
Q 3647 3509 3647 2328 
Q 3647 1150 3233 529 
Q 2819 -91 2034 -91 
Q 1250 -91 836 529 
Q 422 1150 422 2328 
Q 422 3509 836 4129 
Q 1250 4750 2034 4750 
z
" transform="scale(0.015625)"/>
       </defs>
       <use xlink:href="#DejaVuSans-30"/>
      </g>
     </g>
    </g>
    <g id="xtick_2">
     <g id="line2d_3">
      <path d="M 127.017746 386.202423 
L 127.017746 10.331522 
" clip-path="url(#pf0d718f25e)" style="fill: none; stroke-dasharray: 0.8,1.32; stroke-dashoffset: 0; stroke: #b0b0b0; stroke-opacity: 0.5; stroke-width: 0.8"/>
     </g>
     <g id="line2d_4">
      <g>
       <use xlink:href="#mf75be7d9f4" x="127.017746" y="386.202423" style="stroke: #000000; stroke-width: 0.8"/>
      </g>
     </g>
     <g id="text_2">
      <!-- 25 -->
      <g transform="translate(120.655246 400.800861) scale(0.1 -0.1)">
       <defs>
        <path id="DejaVuSans-32" d="M 1228 531 
L 3431 531 
L 3431 0 
L 469 0 
L 469 531 
Q 828 903 1448 1529 
Q 2069 2156 2228 2338 
Q 2531 2678 2651 2914 
Q 2772 3150 2772 3378 
Q 2772 3750 2511 3984 
Q 2250 4219 1831 4219 
Q 1534 4219 1204 4116 
Q 875 4013 500 3803 
L 500 4441 
Q 881 4594 1212 4672 
Q 1544 4750 1819 4750 
Q 2544 4750 2975 4387 
Q 3406 4025 3406 3419 
Q 3406 3131 3298 2873 
Q 3191 2616 2906 2266 
Q 2828 2175 2409 1742 
Q 1991 1309 1228 531 
z
" transform="scale(0.015625)"/>
        <path id="DejaVuSans-35" d="M 691 4666 
L 3169 4666 
L 3169 4134 
L 1269 4134 
L 1269 2991 
Q 1406 3038 1543 3061 
Q 1681 3084 1819 3084 
Q 2600 3084 3056 2656 
Q 3513 2228 3513 1497 
Q 3513 744 3044 326 
Q 2575 -91 1722 -91 
Q 1428 -91 1123 -41 
Q 819 9 494 109 
L 494 744 
Q 775 591 1075 516 
Q 1375 441 1709 441 
Q 2250 441 2565 725 
Q 2881 1009 2881 1497 
Q 2881 1984 2565 2268 
Q 2250 2553 1709 2553 
Q 1456 2553 1204 2497 
Q 953 2441 691 2322 
L 691 4666 
z
" transform="scale(0.015625)"/>
       </defs>
       <use xlink:href="#DejaVuSans-32"/>
       <use xlink:href="#DejaVuSans-35" transform="translate(63.623047 0)"/>
      </g>
     </g>
    </g>
    <g id="xtick_3">
     <g id="line2d_5">
      <path d="M 195.843504 386.202423 
L 195.843504 10.331522 
" clip-path="url(#pf0d718f25e)" style="fill: none; stroke-dasharray: 0.8,1.32; stroke-dashoffset: 0; stroke: #b0b0b0; stroke-opacity: 0.5; stroke-width: 0.8"/>
     </g>
     <g id="line2d_6">
      <g>
       <use xlink:href="#mf75be7d9f4" x="195.843504" y="386.202423" style="stroke: #000000; stroke-width: 0.8"/>
      </g>
     </g>
     <g id="text_3">
      <!-- 50 -->
      <g transform="translate(189.481004 400.800861) scale(0.1 -0.1)">
       <use xlink:href="#DejaVuSans-35"/>
       <use xlink:href="#DejaVuSans-30" transform="translate(63.623047 0)"/>
      </g>
     </g>
    </g>
    <g id="xtick_4">
     <g id="line2d_7">
      <path d="M 264.669261 386.202423 
L 264.669261 10.331522 
" clip-path="url(#pf0d718f25e)" style="fill: none; stroke-dasharray: 0.8,1.32; stroke-dashoffset: 0; stroke: #b0b0b0; stroke-opacity: 0.5; stroke-width: 0.8"/>
     </g>
     <g id="line2d_8">
      <g>
       <use xlink:href="#mf75be7d9f4" x="264.669261" y="386.202423" style="stroke: #000000; stroke-width: 0.8"/>
      </g>
     </g>
     <g id="text_4">
      <!-- 75 -->
      <g transform="translate(258.306761 400.800861) scale(0.1 -0.1)">
       <defs>
        <path id="DejaVuSans-37" d="M 525 4666 
L 3525 4666 
L 3525 4397 
L 1831 0 
L 1172 0 
L 2766 4134 
L 525 4134 
L 525 4666 
z
" transform="scale(0.015625)"/>
       </defs>
       <use xlink:href="#DejaVuSans-37"/>
       <use xlink:href="#DejaVuSans-35" transform="translate(63.623047 0)"/>
      </g>
     </g>
    </g>
    <g id="xtick_5">
     <g id="line2d_9">
      <path d="M 333.495019 386.202423 
L 333.495019 10.331522 
" clip-path="url(#pf0d718f25e)" style="fill: none; stroke-dasharray: 0.8,1.32; stroke-dashoffset: 0; stroke: #b0b0b0; stroke-opacity: 0.5; stroke-width: 0.8"/>
     </g>
     <g id="line2d_10">
      <g>
       <use xlink:href="#mf75be7d9f4" x="333.495019" y="386.202423" style="stroke: #000000; stroke-width: 0.8"/>
      </g>
     </g>
     <g id="text_5">
      <!-- 100 -->
      <g transform="translate(323.951269 400.800861) scale(0.1 -0.1)">
       <defs>
        <path id="DejaVuSans-31" d="M 794 531 
L 1825 531 
L 1825 4091 
L 703 3866 
L 703 4441 
L 1819 4666 
L 2450 4666 
L 2450 531 
L 3481 531 
L 3481 0 
L 794 0 
L 794 531 
z
" transform="scale(0.015625)"/>
       </defs>
       <use xlink:href="#DejaVuSans-31"/>
       <use xlink:href="#DejaVuSans-30" transform="translate(63.623047 0)"/>
       <use xlink:href="#DejaVuSans-30" transform="translate(127.246094 0)"/>
      </g>
     </g>
    </g>
    <g id="xtick_6">
     <g id="line2d_11">
      <path d="M 402.320777 386.202423 
L 402.320777 10.331522 
" clip-path="url(#pf0d718f25e)" style="fill: none; stroke-dasharray: 0.8,1.32; stroke-dashoffset: 0; stroke: #b0b0b0; stroke-opacity: 0.5; stroke-width: 0.8"/>
     </g>
     <g id="line2d_12">
      <g>
       <use xlink:href="#mf75be7d9f4" x="402.320777" y="386.202423" style="stroke: #000000; stroke-width: 0.8"/>
      </g>
     </g>
     <g id="text_6">
      <!-- 125 -->
      <g transform="translate(392.777027 400.800861) scale(0.1 -0.1)">
       <use xlink:href="#DejaVuSans-31"/>
       <use xlink:href="#DejaVuSans-32" transform="translate(63.623047 0)"/>
       <use xlink:href="#DejaVuSans-35" transform="translate(127.246094 0)"/>
      </g>
     </g>
    </g>
    <g id="xtick_7">
     <g id="line2d_13">
      <path d="M 471.146534 386.202423 
L 471.146534 10.331522 
" clip-path="url(#pf0d718f25e)" style="fill: none; stroke-dasharray: 0.8,1.32; stroke-dashoffset: 0; stroke: #b0b0b0; stroke-opacity: 0.5; stroke-width: 0.8"/>
     </g>
     <g id="line2d_14">
      <g>
       <use xlink:href="#mf75be7d9f4" x="471.146534" y="386.202423" style="stroke: #000000; stroke-width: 0.8"/>
      </g>
     </g>
     <g id="text_7">
      <!-- 150 -->
      <g transform="translate(461.602784 400.800861) scale(0.1 -0.1)">
       <use xlink:href="#DejaVuSans-31"/>
       <use xlink:href="#DejaVuSans-35" transform="translate(63.623047 0)"/>
       <use xlink:href="#DejaVuSans-30" transform="translate(127.246094 0)"/>
      </g>
     </g>
    </g>
    <g id="xtick_8">
     <g id="line2d_15">
      <path d="M 539.972292 386.202423 
L 539.972292 10.331522 
" clip-path="url(#pf0d718f25e)" style="fill: none; stroke-dasharray: 0.8,1.32; stroke-dashoffset: 0; stroke: #b0b0b0; stroke-opacity: 0.5; stroke-width: 0.8"/>
     </g>
     <g id="line2d_16">
      <g>
       <use xlink:href="#mf75be7d9f4" x="539.972292" y="386.202423" style="stroke: #000000; stroke-width: 0.8"/>
      </g>
     </g>
     <g id="text_8">
      <!-- 175 -->
      <g transform="translate(530.428542 400.800861) scale(0.1 -0.1)">
       <use xlink:href="#DejaVuSans-31"/>
       <use xlink:href="#DejaVuSans-37" transform="translate(63.623047 0)"/>
       <use xlink:href="#DejaVuSans-35" transform="translate(127.246094 0)"/>
      </g>
     </g>
    </g>
    <g id="text_9">
     <!-- Epoch -->
     <g transform="translate(282.394687 414.478986) scale(0.1 -0.1)">
      <defs>
       <path id="DejaVuSans-45" d="M 628 4666 
L 3578 4666 
L 3578 4134 
L 1259 4134 
L 1259 2753 
L 3481 2753 
L 3481 2222 
L 1259 2222 
L 1259 531 
L 3634 531 
L 3634 0 
L 628 0 
L 628 4666 
z
" transform="scale(0.015625)"/>
       <path id="DejaVuSans-70" d="M 1159 525 
L 1159 -1331 
L 581 -1331 
L 581 3500 
L 1159 3500 
L 1159 2969 
Q 1341 3281 1617 3432 
Q 1894 3584 2278 3584 
Q 2916 3584 3314 3078 
Q 3713 2572 3713 1747 
Q 3713 922 3314 415 
Q 2916 -91 2278 -91 
Q 1894 -91 1617 61 
Q 1341 213 1159 525 
z
M 3116 1747 
Q 3116 2381 2855 2742 
Q 2594 3103 2138 3103 
Q 1681 3103 1420 2742 
Q 1159 2381 1159 1747 
Q 1159 1113 1420 752 
Q 1681 391 2138 391 
Q 2594 391 2855 752 
Q 3116 1113 3116 1747 
z
" transform="scale(0.015625)"/>
       <path id="DejaVuSans-6f" d="M 1959 3097 
Q 1497 3097 1228 2736 
Q 959 2375 959 1747 
Q 959 1119 1226 758 
Q 1494 397 1959 397 
Q 2419 397 2687 759 
Q 2956 1122 2956 1747 
Q 2956 2369 2687 2733 
Q 2419 3097 1959 3097 
z
M 1959 3584 
Q 2709 3584 3137 3096 
Q 3566 2609 3566 1747 
Q 3566 888 3137 398 
Q 2709 -91 1959 -91 
Q 1206 -91 779 398 
Q 353 888 353 1747 
Q 353 2609 779 3096 
Q 1206 3584 1959 3584 
z
" transform="scale(0.015625)"/>
       <path id="DejaVuSans-63" d="M 3122 3366 
L 3122 2828 
Q 2878 2963 2633 3030 
Q 2388 3097 2138 3097 
Q 1578 3097 1268 2742 
Q 959 2388 959 1747 
Q 959 1106 1268 751 
Q 1578 397 2138 397 
Q 2388 397 2633 464 
Q 2878 531 3122 666 
L 3122 134 
Q 2881 22 2623 -34 
Q 2366 -91 2075 -91 
Q 1284 -91 818 406 
Q 353 903 353 1747 
Q 353 2603 823 3093 
Q 1294 3584 2113 3584 
Q 2378 3584 2631 3529 
Q 2884 3475 3122 3366 
z
" transform="scale(0.015625)"/>
       <path id="DejaVuSans-68" d="M 3513 2113 
L 3513 0 
L 2938 0 
L 2938 2094 
Q 2938 2591 2744 2837 
Q 2550 3084 2163 3084 
Q 1697 3084 1428 2787 
Q 1159 2491 1159 1978 
L 1159 0 
L 581 0 
L 581 4863 
L 1159 4863 
L 1159 2956 
Q 1366 3272 1645 3428 
Q 1925 3584 2291 3584 
Q 2894 3584 3203 3211 
Q 3513 2838 3513 2113 
z
" transform="scale(0.015625)"/>
      </defs>
      <use xlink:href="#DejaVuSans-45"/>
      <use xlink:href="#DejaVuSans-70" transform="translate(63.183594 0)"/>
      <use xlink:href="#DejaVuSans-6f" transform="translate(126.660156 0)"/>
      <use xlink:href="#DejaVuSans-63" transform="translate(187.841797 0)"/>
      <use xlink:href="#DejaVuSans-68" transform="translate(242.822266 0)"/>
     </g>
    </g>
   </g>
   <g id="matplotlib.axis_2">
    <g id="ytick_1">
     <g id="line2d_17">
      <path d="M 34.240625 344.152566 
L 561.170625 344.152566 
" clip-path="url(#pf0d718f25e)" style="fill: none; stroke-dasharray: 0.8,1.32; stroke-dashoffset: 0; stroke: #b0b0b0; stroke-opacity: 0.5; stroke-width: 0.8"/>
     </g>
     <g id="line2d_18">
      <defs>
       <path id="mfb12360fd8" d="M 0 0 
L -3.5 0 
" style="stroke: #000000; stroke-width: 0.8"/>
      </defs>
      <g>
       <use xlink:href="#mfb12360fd8" x="34.240625" y="344.152566" style="stroke: #000000; stroke-width: 0.8"/>
      </g>
     </g>
     <g id="text_10">
      <!-- 1 -->
      <g transform="translate(20.878125 347.951785) scale(0.1 -0.1)">
       <use xlink:href="#DejaVuSans-31"/>
      </g>
     </g>
    </g>
    <g id="ytick_2">
     <g id="line2d_19">
      <path d="M 34.240625 277.521896 
L 561.170625 277.521896 
" clip-path="url(#pf0d718f25e)" style="fill: none; stroke-dasharray: 0.8,1.32; stroke-dashoffset: 0; stroke: #b0b0b0; stroke-opacity: 0.5; stroke-width: 0.8"/>
     </g>
     <g id="line2d_20">
      <g>
       <use xlink:href="#mfb12360fd8" x="34.240625" y="277.521896" style="stroke: #000000; stroke-width: 0.8"/>
      </g>
     </g>
     <g id="text_11">
      <!-- 2 -->
      <g transform="translate(20.878125 281.321115) scale(0.1 -0.1)">
       <use xlink:href="#DejaVuSans-32"/>
      </g>
     </g>
    </g>
    <g id="ytick_3">
     <g id="line2d_21">
      <path d="M 34.240625 210.891227 
L 561.170625 210.891227 
" clip-path="url(#pf0d718f25e)" style="fill: none; stroke-dasharray: 0.8,1.32; stroke-dashoffset: 0; stroke: #b0b0b0; stroke-opacity: 0.5; stroke-width: 0.8"/>
     </g>
     <g id="line2d_22">
      <g>
       <use xlink:href="#mfb12360fd8" x="34.240625" y="210.891227" style="stroke: #000000; stroke-width: 0.8"/>
      </g>
     </g>
     <g id="text_12">
      <!-- 3 -->
      <g transform="translate(20.878125 214.690446) scale(0.1 -0.1)">
       <defs>
        <path id="DejaVuSans-33" d="M 2597 2516 
Q 3050 2419 3304 2112 
Q 3559 1806 3559 1356 
Q 3559 666 3084 287 
Q 2609 -91 1734 -91 
Q 1441 -91 1130 -33 
Q 819 25 488 141 
L 488 750 
Q 750 597 1062 519 
Q 1375 441 1716 441 
Q 2309 441 2620 675 
Q 2931 909 2931 1356 
Q 2931 1769 2642 2001 
Q 2353 2234 1838 2234 
L 1294 2234 
L 1294 2753 
L 1863 2753 
Q 2328 2753 2575 2939 
Q 2822 3125 2822 3475 
Q 2822 3834 2567 4026 
Q 2313 4219 1838 4219 
Q 1578 4219 1281 4162 
Q 984 4106 628 3988 
L 628 4550 
Q 988 4650 1302 4700 
Q 1616 4750 1894 4750 
Q 2613 4750 3031 4423 
Q 3450 4097 3450 3541 
Q 3450 3153 3228 2886 
Q 3006 2619 2597 2516 
z
" transform="scale(0.015625)"/>
       </defs>
       <use xlink:href="#DejaVuSans-33"/>
      </g>
     </g>
    </g>
    <g id="ytick_4">
     <g id="line2d_23">
      <path d="M 34.240625 144.260558 
L 561.170625 144.260558 
" clip-path="url(#pf0d718f25e)" style="fill: none; stroke-dasharray: 0.8,1.32; stroke-dashoffset: 0; stroke: #b0b0b0; stroke-opacity: 0.5; stroke-width: 0.8"/>
     </g>
     <g id="line2d_24">
      <g>
       <use xlink:href="#mfb12360fd8" x="34.240625" y="144.260558" style="stroke: #000000; stroke-width: 0.8"/>
      </g>
     </g>
     <g id="text_13">
      <!-- 4 -->
      <g transform="translate(20.878125 148.059776) scale(0.1 -0.1)">
       <defs>
        <path id="DejaVuSans-34" d="M 2419 4116 
L 825 1625 
L 2419 1625 
L 2419 4116 
z
M 2253 4666 
L 3047 4666 
L 3047 1625 
L 3713 1625 
L 3713 1100 
L 3047 1100 
L 3047 0 
L 2419 0 
L 2419 1100 
L 313 1100 
L 313 1709 
L 2253 4666 
z
" transform="scale(0.015625)"/>
       </defs>
       <use xlink:href="#DejaVuSans-34"/>
      </g>
     </g>
    </g>
    <g id="ytick_5">
     <g id="line2d_25">
      <path d="M 34.240625 77.629888 
L 561.170625 77.629888 
" clip-path="url(#pf0d718f25e)" style="fill: none; stroke-dasharray: 0.8,1.32; stroke-dashoffset: 0; stroke: #b0b0b0; stroke-opacity: 0.5; stroke-width: 0.8"/>
     </g>
     <g id="line2d_26">
      <g>
       <use xlink:href="#mfb12360fd8" x="34.240625" y="77.629888" style="stroke: #000000; stroke-width: 0.8"/>
      </g>
     </g>
     <g id="text_14">
      <!-- 5 -->
      <g transform="translate(20.878125 81.429107) scale(0.1 -0.1)">
       <use xlink:href="#DejaVuSans-35"/>
      </g>
     </g>
    </g>
    <g id="ytick_6">
     <g id="line2d_27">
      <path d="M 34.240625 10.999219 
L 561.170625 10.999219 
" clip-path="url(#pf0d718f25e)" style="fill: none; stroke-dasharray: 0.8,1.32; stroke-dashoffset: 0; stroke: #b0b0b0; stroke-opacity: 0.5; stroke-width: 0.8"/>
     </g>
     <g id="line2d_28">
      <g>
       <use xlink:href="#mfb12360fd8" x="34.240625" y="10.999219" style="stroke: #000000; stroke-width: 0.8"/>
      </g>
     </g>
     <g id="text_15">
      <!-- 6 -->
      <g transform="translate(20.878125 14.798437) scale(0.1 -0.1)">
       <defs>
        <path id="DejaVuSans-36" d="M 2113 2584 
Q 1688 2584 1439 2293 
Q 1191 2003 1191 1497 
Q 1191 994 1439 701 
Q 1688 409 2113 409 
Q 2538 409 2786 701 
Q 3034 994 3034 1497 
Q 3034 2003 2786 2293 
Q 2538 2584 2113 2584 
z
M 3366 4563 
L 3366 3988 
Q 3128 4100 2886 4159 
Q 2644 4219 2406 4219 
Q 1781 4219 1451 3797 
Q 1122 3375 1075 2522 
Q 1259 2794 1537 2939 
Q 1816 3084 2150 3084 
Q 2853 3084 3261 2657 
Q 3669 2231 3669 1497 
Q 3669 778 3244 343 
Q 2819 -91 2113 -91 
Q 1303 -91 875 529 
Q 447 1150 447 2328 
Q 447 3434 972 4092 
Q 1497 4750 2381 4750 
Q 2619 4750 2861 4703 
Q 3103 4656 3366 4563 
z
" transform="scale(0.015625)"/>
       </defs>
       <use xlink:href="#DejaVuSans-36"/>
      </g>
     </g>
    </g>
    <g id="text_16">
     <!-- Loss -->
     <g transform="translate(14.798438 209.23416) rotate(-90) scale(0.1 -0.1)">
      <defs>
       <path id="DejaVuSans-4c" d="M 628 4666 
L 1259 4666 
L 1259 531 
L 3531 531 
L 3531 0 
L 628 0 
L 628 4666 
z
" transform="scale(0.015625)"/>
       <path id="DejaVuSans-73" d="M 2834 3397 
L 2834 2853 
Q 2591 2978 2328 3040 
Q 2066 3103 1784 3103 
Q 1356 3103 1142 2972 
Q 928 2841 928 2578 
Q 928 2378 1081 2264 
Q 1234 2150 1697 2047 
L 1894 2003 
Q 2506 1872 2764 1633 
Q 3022 1394 3022 966 
Q 3022 478 2636 193 
Q 2250 -91 1575 -91 
Q 1294 -91 989 -36 
Q 684 19 347 128 
L 347 722 
Q 666 556 975 473 
Q 1284 391 1588 391 
Q 1994 391 2212 530 
Q 2431 669 2431 922 
Q 2431 1156 2273 1281 
Q 2116 1406 1581 1522 
L 1381 1569 
Q 847 1681 609 1914 
Q 372 2147 372 2553 
Q 372 3047 722 3315 
Q 1072 3584 1716 3584 
Q 2034 3584 2315 3537 
Q 2597 3491 2834 3397 
z
" transform="scale(0.015625)"/>
      </defs>
      <use xlink:href="#DejaVuSans-4c"/>
      <use xlink:href="#DejaVuSans-6f" transform="translate(53.962891 0)"/>
      <use xlink:href="#DejaVuSans-73" transform="translate(115.144531 0)"/>
      <use xlink:href="#DejaVuSans-73" transform="translate(167.244141 0)"/>
     </g>
    </g>
   </g>
   <g id="line2d_29">
    <path d="M 58.191989 27.416563 
L 60.945019 46.326768 
L 63.698049 54.201898 
L 66.45108 59.303969 
L 69.20411 77.093164 
L 71.95714 89.330205 
L 74.71017 107.601317 
L 80.216231 162.542424 
L 82.969261 171.727751 
L 85.722292 184.831897 
L 88.475322 200.501456 
L 91.228352 204.327104 
L 93.981383 218.905947 
L 96.734413 218.491609 
L 99.487443 232.977121 
L 102.240473 235.630876 
L 104.993504 230.708935 
L 107.746534 233.633737 
L 110.499564 239.600006 
L 113.252595 242.774948 
L 116.005625 236.484779 
L 118.758655 236.670407 
L 121.511686 234.481064 
L 124.264716 231.265231 
L 127.017746 230.778595 
L 129.770777 237.716277 
L 132.523807 231.342008 
L 135.276837 235.626364 
L 138.029867 213.054788 
L 140.782898 213.232329 
L 143.535928 217.653988 
L 146.288958 199.449565 
L 149.041989 213.844702 
L 151.795019 205.228189 
L 154.548049 182.888231 
L 157.30108 190.540083 
L 160.05411 192.712143 
L 162.80714 189.646846 
L 165.56017 203.346208 
L 168.313201 178.664511 
L 171.066231 182.554879 
L 173.819261 162.911265 
L 176.572292 163.872447 
L 179.325322 184.65731 
L 182.078352 178.077397 
L 184.831383 183.491803 
L 187.584413 177.841411 
L 190.337443 176.761068 
L 193.090473 157.396778 
L 195.843504 175.603535 
L 198.596534 179.809637 
L 201.349564 165.674585 
L 204.102595 166.893025 
L 206.855625 161.45236 
L 209.608655 175.522644 
L 212.361686 167.312844 
L 215.114716 158.299324 
L 217.867746 153.007955 
L 220.620777 181.334565 
L 223.373807 177.183127 
L 226.126837 162.292236 
L 228.879867 165.668628 
L 231.632898 178.487144 
L 234.385928 166.824572 
L 237.138958 174.06064 
L 239.891989 167.616711 
L 242.645019 160.777316 
L 245.398049 158.372019 
L 248.15108 161.678941 
L 250.90411 159.96165 
L 253.65714 170.021659 
L 256.41017 162.493082 
L 259.163201 154.557951 
L 261.916231 169.766356 
L 264.669261 159.856183 
L 267.422292 166.545884 
L 270.175322 172.738354 
L 272.928352 181.23407 
L 275.681383 149.048563 
L 278.434413 167.753807 
L 281.187443 152.505053 
L 283.940473 159.722645 
L 286.693504 152.385622 
L 289.446534 171.888501 
L 292.199564 157.136724 
L 294.952595 157.321621 
L 297.705625 154.477028 
L 300.458655 177.199474 
L 303.211686 159.49152 
L 305.964716 172.743088 
L 308.717746 176.931588 
L 311.470777 160.917875 
L 314.223807 164.565998 
L 316.976837 169.125181 
L 319.729867 164.947944 
L 322.482898 152.91704 
L 325.235928 157.814611 
L 327.988958 156.677635 
L 330.741989 175.409901 
L 333.495019 142.672658 
L 336.248049 154.635523 
L 339.00108 155.640391 
L 341.75411 167.764562 
L 344.50714 163.005835 
L 347.26017 164.473827 
L 350.013201 152.892003 
L 355.519261 155.435271 
L 358.272292 156.171428 
L 361.025322 151.278289 
L 363.778352 164.728702 
L 366.531383 157.63224 
L 369.284413 159.178693 
L 372.037443 161.765631 
L 374.790473 149.140098 
L 377.543504 153.181843 
L 380.296534 156.591358 
L 383.049564 159.640022 
L 385.802595 160.673581 
L 388.555625 147.634551 
L 391.308655 165.500825 
L 396.814716 148.629411 
L 399.567746 181.978504 
L 402.320777 156.379502 
L 405.073807 148.600785 
L 407.826837 155.362434 
L 410.579867 156.595488 
L 413.332898 158.65749 
L 416.085928 170.696592 
L 418.838958 159.495142 
L 421.591989 174.44497 
L 424.345019 177.936218 
L 427.098049 176.843087 
L 429.85108 170.077149 
L 432.60411 160.466936 
L 435.35714 158.561665 
L 438.11017 169.450272 
L 440.863201 156.231223 
L 443.616231 162.504219 
L 446.369261 161.219185 
L 449.122292 169.623684 
L 451.875322 146.060726 
L 454.628352 171.801621 
L 457.381383 154.052634 
L 460.134413 171.365344 
L 462.887443 157.099122 
L 465.640473 170.59848 
L 468.393504 152.643975 
L 471.146534 156.495073 
L 473.899564 146.901349 
L 476.652595 154.967365 
L 479.405625 179.85461 
L 482.158655 158.986107 
L 484.911686 163.577968 
L 487.664716 162.6857 
L 490.417746 172.889446 
L 493.170777 160.587717 
L 495.923807 155.579595 
L 498.676837 161.371548 
L 501.429867 168.838296 
L 504.182898 165.118639 
L 506.935928 173.593688 
L 509.688958 158.204564 
L 512.441989 166.992582 
L 515.195019 156.215527 
L 517.948049 159.596225 
L 520.70108 151.762732 
L 523.45411 146.861809 
L 526.20714 158.709008 
L 528.96017 149.961817 
L 531.713201 151.038458 
L 534.466231 174.796781 
L 537.219261 143.446496 
L 537.219261 143.446496 
" clip-path="url(#pf0d718f25e)" style="fill: none; stroke: #1f77b4; stroke-width: 1.5; stroke-linecap: square"/>
   </g>
   <g id="line2d_30">
    <path d="M 58.191989 37.054243 
L 60.945019 47.205676 
L 63.698049 51.833043 
L 66.45108 59.525357 
L 71.95714 88.643676 
L 74.71017 108.114753 
L 77.463201 126.083364 
L 80.216231 142.855505 
L 82.969261 162.430873 
L 85.722292 166.457606 
L 88.475322 185.533502 
L 91.228352 193.626794 
L 93.981383 215.989692 
L 96.734413 217.953661 
L 99.487443 217.089209 
L 102.240473 218.543175 
L 104.993504 218.397309 
L 107.746534 222.714263 
L 110.499564 235.18969 
L 113.252595 231.130692 
L 116.005625 234.047281 
L 118.758655 224.48598 
L 121.511686 226.388312 
L 124.264716 231.773789 
L 127.017746 235.319192 
L 129.770777 208.703726 
L 132.523807 226.869323 
L 135.276837 220.251935 
L 138.029867 220.035139 
L 140.782898 188.216296 
L 143.535928 215.143636 
L 146.288958 210.400112 
L 149.041989 195.551016 
L 151.795019 208.162634 
L 154.548049 195.145685 
L 157.30108 195.682235 
L 160.05411 176.585274 
L 162.80714 193.679536 
L 165.56017 185.671043 
L 168.313201 181.301109 
L 171.066231 165.132444 
L 173.819261 181.856023 
L 176.572292 159.740279 
L 179.325322 176.313083 
L 182.078352 169.209854 
L 184.831383 176.95672 
L 187.584413 162.904037 
L 190.337443 154.37531 
L 193.090473 169.938004 
L 195.843504 171.919479 
L 198.596534 188.098835 
L 201.349564 161.30346 
L 204.102595 158.756491 
L 206.855625 154.400092 
L 209.608655 175.420179 
L 212.361686 177.63745 
L 215.114716 135.767272 
L 217.867746 136.324553 
L 220.620777 175.487711 
L 223.373807 164.362403 
L 226.126837 155.930834 
L 228.879867 178.844611 
L 231.632898 155.670574 
L 234.385928 148.302446 
L 237.138958 151.551258 
L 239.891989 160.621649 
L 242.645019 157.652288 
L 245.398049 158.649515 
L 248.15108 163.785122 
L 250.90411 141.425862 
L 253.65714 171.033502 
L 256.41017 152.902298 
L 259.163201 146.657801 
L 261.916231 163.040816 
L 264.669261 149.977353 
L 267.422292 150.859471 
L 270.175322 147.871078 
L 272.928352 152.519477 
L 275.681383 163.02682 
L 278.434413 154.069425 
L 281.187443 146.871356 
L 283.940473 166.875407 
L 286.693504 144.287198 
L 289.446534 146.19258 
L 292.199564 155.546695 
L 294.952595 160.327536 
L 297.705625 145.966713 
L 300.458655 166.697866 
L 303.211686 156.275942 
L 305.964716 144.830436 
L 308.717746 152.77181 
L 311.470777 159.573365 
L 314.223807 171.267534 
L 316.976837 137.416206 
L 319.729867 152.289464 
L 322.482898 148.453569 
L 325.235928 154.590343 
L 327.988958 151.819747 
L 330.741989 158.123307 
L 333.495019 160.274191 
L 336.248049 158.007626 
L 339.00108 157.505152 
L 341.75411 152.186173 
L 344.50714 148.404624 
L 347.26017 152.965937 
L 350.013201 165.989303 
L 352.766231 153.321624 
L 355.519261 156.194129 
L 358.272292 148.295138 
L 361.025322 143.817021 
L 363.778352 140.284326 
L 366.531383 143.539334 
L 369.284413 166.081537 
L 372.037443 155.372172 
L 374.790473 147.399407 
L 377.543504 148.906034 
L 380.296534 151.276017 
L 383.049564 153.124892 
L 385.802595 157.772624 
L 388.555625 143.476393 
L 391.308655 163.764708 
L 394.061686 133.698408 
L 396.814716 147.865883 
L 399.567746 148.715609 
L 402.320777 158.219338 
L 405.073807 149.871505 
L 407.826837 159.204143 
L 410.579867 147.976688 
L 413.332898 149.923643 
L 416.085928 145.499919 
L 418.838958 156.339597 
L 421.591989 152.772747 
L 424.345019 163.48548 
L 427.098049 160.828676 
L 429.85108 155.969723 
L 432.60411 155.560294 
L 435.35714 159.238838 
L 438.11017 165.661559 
L 440.863201 143.497522 
L 443.616231 148.999777 
L 446.369261 169.316099 
L 449.122292 143.035049 
L 451.875322 157.854755 
L 454.628352 161.207795 
L 457.381383 149.888296 
L 460.134413 155.483294 
L 462.887443 156.161642 
L 465.640473 157.15396 
L 468.393504 153.819412 
L 471.146534 162.452796 
L 473.899564 164.963767 
L 476.652595 138.458962 
L 479.405625 134.969509 
L 482.158655 150.482623 
L 484.911686 152.135783 
L 487.664716 152.985826 
L 490.417746 156.476677 
L 493.170777 153.443057 
L 495.923807 158.541252 
L 498.676837 155.100696 
L 501.429867 164.537466 
L 504.182898 144.761713 
L 506.935928 164.051276 
L 509.688958 152.146935 
L 512.441989 168.849337 
L 515.195019 136.437661 
L 517.948049 150.683152 
L 520.70108 153.984022 
L 523.45411 168.678213 
L 526.20714 164.799124 
L 528.96017 159.173721 
L 531.713201 147.500505 
L 534.466231 149.78893 
L 537.219261 154.661719 
L 537.219261 154.661719 
" clip-path="url(#pf0d718f25e)" style="fill: none; stroke: #ff7f0e; stroke-width: 1.5; stroke-linecap: square"/>
   </g>
   <g id="line2d_31">
    <path d="M 58.191989 369.117382 
L 60.945019 365.050525 
L 63.698049 355.1995 
L 66.45108 343.070738 
L 69.20411 325.391276 
L 71.95714 291.867112 
L 74.71017 254.093001 
L 77.463201 192.506768 
L 80.216231 158.261055 
L 82.969261 165.240533 
L 85.722292 155.10651 
L 88.475322 135.645871 
L 91.228352 118.624383 
L 93.981383 109.613246 
L 96.734413 119.159804 
L 99.487443 125.815558 
L 102.240473 129.180846 
L 104.993504 136.330971 
L 107.746534 138.970205 
L 110.499564 137.640961 
L 113.252595 136.486844 
L 116.005625 152.171892 
L 118.758655 160.050151 
L 121.511686 165.961804 
L 124.264716 164.510317 
L 127.017746 164.458005 
L 129.770777 170.319951 
L 132.523807 180.385568 
L 135.276837 185.76539 
L 138.029867 195.306976 
L 140.782898 201.267018 
L 143.535928 203.133463 
L 146.288958 211.244595 
L 149.041989 217.158774 
L 151.795019 222.2014 
L 154.548049 228.427008 
L 157.30108 232.582307 
L 160.05411 237.977919 
L 162.80714 242.447808 
L 165.56017 249.44333 
L 168.313201 252.932958 
L 171.066231 258.355958 
L 173.819261 260.741287 
L 176.572292 261.721342 
L 179.325322 260.696679 
L 182.078352 262.140462 
L 184.831383 264.249613 
L 187.584413 266.652448 
L 190.337443 267.900928 
L 193.090473 270.2596 
L 195.843504 270.991849 
L 198.596534 270.879837 
L 201.349564 273.224736 
L 204.102595 273.456958 
L 206.855625 274.741229 
L 209.608655 274.470706 
L 212.361686 274.348035 
L 215.114716 274.928731 
L 217.867746 276.44157 
L 220.620777 275.44304 
L 223.373807 276.310081 
L 226.126837 276.138211 
L 228.879867 277.466327 
L 231.632898 276.89718 
L 234.385928 277.646339 
L 237.138958 278.120838 
L 239.891989 278.722845 
L 242.645019 278.4789 
L 245.398049 279.547471 
L 248.15108 280.304637 
L 250.90411 280.289061 
L 253.65714 279.907924 
L 259.163201 282.908613 
L 261.916231 282.307622 
L 264.669261 283.890177 
L 267.422292 284.108609 
L 270.175322 283.026948 
L 272.928352 283.392421 
L 275.681383 285.149348 
L 278.434413 284.75273 
L 281.187443 285.324975 
L 283.940473 286.747399 
L 286.693504 285.55143 
L 289.446534 285.464351 
L 292.199564 286.252193 
L 294.952595 285.664459 
L 300.458655 286.059869 
L 303.211686 287.56961 
L 305.964716 287.336134 
L 308.717746 285.00967 
L 314.223807 286.471888 
L 316.976837 285.968318 
L 319.729867 286.84586 
L 325.235928 286.469164 
L 327.988958 286.823302 
L 330.741989 285.367025 
L 333.495019 285.876124 
L 336.248049 286.609977 
L 339.00108 286.322107 
L 341.75411 286.19015 
L 344.50714 285.387375 
L 347.26017 286.237189 
L 350.013201 286.657095 
L 352.766231 287.672702 
L 355.519261 285.920049 
L 358.272292 287.261152 
L 361.025322 286.144232 
L 363.778352 286.596347 
L 366.531383 286.232184 
L 369.284413 287.718986 
L 374.790473 288.217989 
L 377.543504 288.067469 
L 380.296534 286.906394 
L 383.049564 286.771434 
L 385.802595 288.672296 
L 388.555625 288.275305 
L 391.308655 287.28591 
L 394.061686 287.017683 
L 396.814716 287.45284 
L 399.567746 286.59506 
L 402.320777 287.53173 
L 405.073807 287.765627 
L 407.826837 286.50138 
L 413.332898 287.331336 
L 416.085928 288.358254 
L 418.838958 288.06067 
L 421.591989 286.755421 
L 424.345019 287.115469 
L 427.098049 286.903479 
L 429.85108 287.727286 
L 432.60411 286.726652 
L 435.35714 287.516162 
L 438.11017 288.057111 
L 440.863201 287.24162 
L 443.616231 287.639254 
L 446.369261 288.31707 
L 449.122292 288.363512 
L 451.875322 287.717461 
L 457.381383 287.836431 
L 460.134413 288.498631 
L 462.887443 288.356435 
L 465.640473 287.405619 
L 468.393504 287.41322 
L 471.146534 288.062934 
L 473.899564 288.440154 
L 476.652595 288.684711 
L 479.405625 288.377301 
L 482.158655 288.474476 
L 484.911686 288.393584 
L 487.664716 286.613663 
L 490.417746 288.588355 
L 493.170777 288.693552 
L 495.923807 288.503913 
L 498.676837 288.003139 
L 501.429867 288.442958 
L 504.182898 288.328643 
L 506.935928 288.690573 
L 509.688958 287.324322 
L 512.441989 288.696896 
L 515.195019 287.176916 
L 517.948049 287.758431 
L 520.70108 287.900912 
L 523.45411 289.321612 
L 526.20714 287.888712 
L 528.96017 287.207822 
L 531.713201 288.730892 
L 534.466231 288.460425 
L 537.219261 288.338651 
L 537.219261 288.338651 
" clip-path="url(#pf0d718f25e)" style="fill: none; stroke: #2ca02c; stroke-width: 1.5; stroke-linecap: square"/>
   </g>
   <g id="line2d_32">
    <path d="M 58.191989 368.486689 
L 60.945019 364.031578 
L 63.698049 355.322307 
L 66.45108 342.932148 
L 69.20411 323.422056 
L 71.95714 292.180987 
L 74.71017 246.739694 
L 77.463201 203.406622 
L 80.216231 182.868294 
L 82.969261 182.032738 
L 85.722292 169.913206 
L 88.475322 146.013862 
L 91.228352 126.236536 
L 93.981383 122.186784 
L 96.734413 128.354361 
L 99.487443 135.828592 
L 102.240473 138.391511 
L 104.993504 141.265953 
L 107.746534 141.939837 
L 110.499564 139.680341 
L 113.252595 143.988875 
L 116.005625 152.619765 
L 118.758655 163.881184 
L 121.511686 165.799608 
L 124.264716 164.472302 
L 127.017746 165.11327 
L 129.770777 174.616507 
L 135.276837 188.14141 
L 138.029867 198.79268 
L 140.782898 202.038553 
L 143.535928 204.039425 
L 146.288958 214.317327 
L 149.041989 220.087722 
L 151.795019 223.731459 
L 154.548049 230.001278 
L 157.30108 233.917254 
L 160.05411 239.835436 
L 162.80714 244.634848 
L 168.313201 255.543264 
L 171.066231 259.491584 
L 173.819261 260.877891 
L 176.572292 261.187223 
L 179.325322 261.859089 
L 182.078352 263.213767 
L 184.831383 265.036223 
L 187.584413 267.777256 
L 190.337443 270.320396 
L 193.090473 271.451621 
L 195.843504 272.120469 
L 198.596534 272.946588 
L 204.102595 274.36373 
L 206.855625 275.451316 
L 209.608655 275.856473 
L 212.361686 275.991043 
L 217.867746 276.784485 
L 220.620777 276.943456 
L 231.632898 279.084458 
L 237.138958 279.63629 
L 239.891989 280.202101 
L 245.398049 281.004129 
L 248.15108 281.584468 
L 250.90411 282.024121 
L 256.41017 283.788141 
L 259.163201 284.34898 
L 261.916231 284.63878 
L 264.669261 284.671656 
L 267.422292 284.941678 
L 270.175322 285.340242 
L 275.681383 286.322337 
L 281.187443 286.773793 
L 283.940473 286.842159 
L 289.446534 287.370487 
L 292.199564 287.637952 
L 294.952595 287.729193 
L 305.964716 287.360066 
L 314.223807 288.225868 
L 319.729867 288.233668 
L 322.482898 288.204009 
L 327.988958 287.863723 
L 336.248049 287.736691 
L 341.75411 287.733951 
L 344.50714 287.858028 
L 350.013201 288.283701 
L 355.519261 288.401496 
L 363.778352 288.548814 
L 369.284413 288.79971 
L 385.802595 289.024219 
L 391.308655 288.938561 
L 394.061686 289.028865 
L 399.567746 289.007475 
L 405.073807 289.096269 
L 421.591989 289.056292 
L 432.60411 289.18427 
L 443.616231 289.300698 
L 457.381383 289.627243 
L 465.640473 289.82971 
L 495.923807 289.965225 
L 515.195019 289.949204 
L 531.713201 289.983097 
L 537.219261 289.997513 
L 537.219261 289.997513 
" clip-path="url(#pf0d718f25e)" style="fill: none; stroke: #d62728; stroke-width: 1.5; stroke-linecap: square"/>
   </g>
   <g id="patch_3">
    <path d="M 34.240625 386.202423 
L 34.240625 10.331522 
" style="fill: none; stroke: #000000; stroke-width: 0.8; stroke-linejoin: miter; stroke-linecap: square"/>
   </g>
   <g id="patch_4">
    <path d="M 561.170625 386.202423 
L 561.170625 10.331522 
" style="fill: none; stroke: #000000; stroke-width: 0.8; stroke-linejoin: miter; stroke-linecap: square"/>
   </g>
   <g id="patch_5">
    <path d="M 34.240625 386.202423 
L 561.170625 386.202423 
" style="fill: none; stroke: #000000; stroke-width: 0.8; stroke-linejoin: miter; stroke-linecap: square"/>
   </g>
   <g id="patch_6">
    <path d="M 34.240625 10.331522 
L 561.170625 10.331522 
" style="fill: none; stroke: #000000; stroke-width: 0.8; stroke-linejoin: miter; stroke-linecap: square"/>
   </g>
   <g id="legend_1">
    <g id="patch_7">
     <path d="M 405.805 78.156522 
L 554.170625 78.156522 
Q 556.170625 78.156522 556.170625 76.156522 
L 556.170625 17.331522 
Q 556.170625 15.331522 554.170625 15.331522 
L 405.805 15.331522 
Q 403.805 15.331522 403.805 17.331522 
L 403.805 76.156522 
Q 403.805 78.156522 405.805 78.156522 
z
" style="fill: #ffffff; opacity: 0.8; stroke: #cccccc; stroke-linejoin: miter"/>
    </g>
    <g id="line2d_33">
     <path d="M 407.805 23.429959 
L 417.805 23.429959 
L 427.805 23.429959 
" style="fill: none; stroke: #1f77b4; stroke-width: 1.5; stroke-linecap: square"/>
    </g>
    <g id="text_17">
     <!-- reconstruction_loss -->
     <g transform="translate(435.805 26.929959) scale(0.1 -0.1)">
      <defs>
       <path id="DejaVuSans-72" d="M 2631 2963 
Q 2534 3019 2420 3045 
Q 2306 3072 2169 3072 
Q 1681 3072 1420 2755 
Q 1159 2438 1159 1844 
L 1159 0 
L 581 0 
L 581 3500 
L 1159 3500 
L 1159 2956 
Q 1341 3275 1631 3429 
Q 1922 3584 2338 3584 
Q 2397 3584 2469 3576 
Q 2541 3569 2628 3553 
L 2631 2963 
z
" transform="scale(0.015625)"/>
       <path id="DejaVuSans-65" d="M 3597 1894 
L 3597 1613 
L 953 1613 
Q 991 1019 1311 708 
Q 1631 397 2203 397 
Q 2534 397 2845 478 
Q 3156 559 3463 722 
L 3463 178 
Q 3153 47 2828 -22 
Q 2503 -91 2169 -91 
Q 1331 -91 842 396 
Q 353 884 353 1716 
Q 353 2575 817 3079 
Q 1281 3584 2069 3584 
Q 2775 3584 3186 3129 
Q 3597 2675 3597 1894 
z
M 3022 2063 
Q 3016 2534 2758 2815 
Q 2500 3097 2075 3097 
Q 1594 3097 1305 2825 
Q 1016 2553 972 2059 
L 3022 2063 
z
" transform="scale(0.015625)"/>
       <path id="DejaVuSans-6e" d="M 3513 2113 
L 3513 0 
L 2938 0 
L 2938 2094 
Q 2938 2591 2744 2837 
Q 2550 3084 2163 3084 
Q 1697 3084 1428 2787 
Q 1159 2491 1159 1978 
L 1159 0 
L 581 0 
L 581 3500 
L 1159 3500 
L 1159 2956 
Q 1366 3272 1645 3428 
Q 1925 3584 2291 3584 
Q 2894 3584 3203 3211 
Q 3513 2838 3513 2113 
z
" transform="scale(0.015625)"/>
       <path id="DejaVuSans-74" d="M 1172 4494 
L 1172 3500 
L 2356 3500 
L 2356 3053 
L 1172 3053 
L 1172 1153 
Q 1172 725 1289 603 
Q 1406 481 1766 481 
L 2356 481 
L 2356 0 
L 1766 0 
Q 1100 0 847 248 
Q 594 497 594 1153 
L 594 3053 
L 172 3053 
L 172 3500 
L 594 3500 
L 594 4494 
L 1172 4494 
z
" transform="scale(0.015625)"/>
       <path id="DejaVuSans-75" d="M 544 1381 
L 544 3500 
L 1119 3500 
L 1119 1403 
Q 1119 906 1312 657 
Q 1506 409 1894 409 
Q 2359 409 2629 706 
Q 2900 1003 2900 1516 
L 2900 3500 
L 3475 3500 
L 3475 0 
L 2900 0 
L 2900 538 
Q 2691 219 2414 64 
Q 2138 -91 1772 -91 
Q 1169 -91 856 284 
Q 544 659 544 1381 
z
M 1991 3584 
L 1991 3584 
z
" transform="scale(0.015625)"/>
       <path id="DejaVuSans-69" d="M 603 3500 
L 1178 3500 
L 1178 0 
L 603 0 
L 603 3500 
z
M 603 4863 
L 1178 4863 
L 1178 4134 
L 603 4134 
L 603 4863 
z
" transform="scale(0.015625)"/>
       <path id="DejaVuSans-5f" d="M 3263 -1063 
L 3263 -1509 
L -63 -1509 
L -63 -1063 
L 3263 -1063 
z
" transform="scale(0.015625)"/>
       <path id="DejaVuSans-6c" d="M 603 4863 
L 1178 4863 
L 1178 0 
L 603 0 
L 603 4863 
z
" transform="scale(0.015625)"/>
      </defs>
      <use xlink:href="#DejaVuSans-72"/>
      <use xlink:href="#DejaVuSans-65" transform="translate(38.863281 0)"/>
      <use xlink:href="#DejaVuSans-63" transform="translate(100.386719 0)"/>
      <use xlink:href="#DejaVuSans-6f" transform="translate(155.367188 0)"/>
      <use xlink:href="#DejaVuSans-6e" transform="translate(216.548828 0)"/>
      <use xlink:href="#DejaVuSans-73" transform="translate(279.927734 0)"/>
      <use xlink:href="#DejaVuSans-74" transform="translate(332.027344 0)"/>
      <use xlink:href="#DejaVuSans-72" transform="translate(371.236328 0)"/>
      <use xlink:href="#DejaVuSans-75" transform="translate(412.349609 0)"/>
      <use xlink:href="#DejaVuSans-63" transform="translate(475.728516 0)"/>
      <use xlink:href="#DejaVuSans-74" transform="translate(530.708984 0)"/>
      <use xlink:href="#DejaVuSans-69" transform="translate(569.917969 0)"/>
      <use xlink:href="#DejaVuSans-6f" transform="translate(597.701172 0)"/>
      <use xlink:href="#DejaVuSans-6e" transform="translate(658.882812 0)"/>
      <use xlink:href="#DejaVuSans-5f" transform="translate(722.261719 0)"/>
      <use xlink:href="#DejaVuSans-6c" transform="translate(772.261719 0)"/>
      <use xlink:href="#DejaVuSans-6f" transform="translate(800.044922 0)"/>
      <use xlink:href="#DejaVuSans-73" transform="translate(861.226562 0)"/>
      <use xlink:href="#DejaVuSans-73" transform="translate(913.326172 0)"/>
     </g>
    </g>
    <g id="line2d_34">
     <path d="M 407.805 38.386209 
L 417.805 38.386209 
L 427.805 38.386209 
" style="fill: none; stroke: #ff7f0e; stroke-width: 1.5; stroke-linecap: square"/>
    </g>
    <g id="text_18">
     <!-- val_reconstruction_loss -->
     <g transform="translate(435.805 41.886209) scale(0.1 -0.1)">
      <defs>
       <path id="DejaVuSans-76" d="M 191 3500 
L 800 3500 
L 1894 563 
L 2988 3500 
L 3597 3500 
L 2284 0 
L 1503 0 
L 191 3500 
z
" transform="scale(0.015625)"/>
       <path id="DejaVuSans-61" d="M 2194 1759 
Q 1497 1759 1228 1600 
Q 959 1441 959 1056 
Q 959 750 1161 570 
Q 1363 391 1709 391 
Q 2188 391 2477 730 
Q 2766 1069 2766 1631 
L 2766 1759 
L 2194 1759 
z
M 3341 1997 
L 3341 0 
L 2766 0 
L 2766 531 
Q 2569 213 2275 61 
Q 1981 -91 1556 -91 
Q 1019 -91 701 211 
Q 384 513 384 1019 
Q 384 1609 779 1909 
Q 1175 2209 1959 2209 
L 2766 2209 
L 2766 2266 
Q 2766 2663 2505 2880 
Q 2244 3097 1772 3097 
Q 1472 3097 1187 3025 
Q 903 2953 641 2809 
L 641 3341 
Q 956 3463 1253 3523 
Q 1550 3584 1831 3584 
Q 2591 3584 2966 3190 
Q 3341 2797 3341 1997 
z
" transform="scale(0.015625)"/>
      </defs>
      <use xlink:href="#DejaVuSans-76"/>
      <use xlink:href="#DejaVuSans-61" transform="translate(59.179688 0)"/>
      <use xlink:href="#DejaVuSans-6c" transform="translate(120.458984 0)"/>
      <use xlink:href="#DejaVuSans-5f" transform="translate(148.242188 0)"/>
      <use xlink:href="#DejaVuSans-72" transform="translate(198.242188 0)"/>
      <use xlink:href="#DejaVuSans-65" transform="translate(237.105469 0)"/>
      <use xlink:href="#DejaVuSans-63" transform="translate(298.628906 0)"/>
      <use xlink:href="#DejaVuSans-6f" transform="translate(353.609375 0)"/>
      <use xlink:href="#DejaVuSans-6e" transform="translate(414.791016 0)"/>
      <use xlink:href="#DejaVuSans-73" transform="translate(478.169922 0)"/>
      <use xlink:href="#DejaVuSans-74" transform="translate(530.269531 0)"/>
      <use xlink:href="#DejaVuSans-72" transform="translate(569.478516 0)"/>
      <use xlink:href="#DejaVuSans-75" transform="translate(610.591797 0)"/>
      <use xlink:href="#DejaVuSans-63" transform="translate(673.970703 0)"/>
      <use xlink:href="#DejaVuSans-74" transform="translate(728.951172 0)"/>
      <use xlink:href="#DejaVuSans-69" transform="translate(768.160156 0)"/>
      <use xlink:href="#DejaVuSans-6f" transform="translate(795.943359 0)"/>
      <use xlink:href="#DejaVuSans-6e" transform="translate(857.125 0)"/>
      <use xlink:href="#DejaVuSans-5f" transform="translate(920.503906 0)"/>
      <use xlink:href="#DejaVuSans-6c" transform="translate(970.503906 0)"/>
      <use xlink:href="#DejaVuSans-6f" transform="translate(998.287109 0)"/>
      <use xlink:href="#DejaVuSans-73" transform="translate(1059.46875 0)"/>
      <use xlink:href="#DejaVuSans-73" transform="translate(1111.568359 0)"/>
     </g>
    </g>
    <g id="line2d_35">
     <path d="M 407.805 53.342459 
L 417.805 53.342459 
L 427.805 53.342459 
" style="fill: none; stroke: #2ca02c; stroke-width: 1.5; stroke-linecap: square"/>
    </g>
    <g id="text_19">
     <!-- kl_loss -->
     <g transform="translate(435.805 56.842459) scale(0.1 -0.1)">
      <defs>
       <path id="DejaVuSans-6b" d="M 581 4863 
L 1159 4863 
L 1159 1991 
L 2875 3500 
L 3609 3500 
L 1753 1863 
L 3688 0 
L 2938 0 
L 1159 1709 
L 1159 0 
L 581 0 
L 581 4863 
z
" transform="scale(0.015625)"/>
      </defs>
      <use xlink:href="#DejaVuSans-6b"/>
      <use xlink:href="#DejaVuSans-6c" transform="translate(57.910156 0)"/>
      <use xlink:href="#DejaVuSans-5f" transform="translate(85.693359 0)"/>
      <use xlink:href="#DejaVuSans-6c" transform="translate(135.693359 0)"/>
      <use xlink:href="#DejaVuSans-6f" transform="translate(163.476562 0)"/>
      <use xlink:href="#DejaVuSans-73" transform="translate(224.658203 0)"/>
      <use xlink:href="#DejaVuSans-73" transform="translate(276.757812 0)"/>
     </g>
    </g>
    <g id="line2d_36">
     <path d="M 407.805 68.298709 
L 417.805 68.298709 
L 427.805 68.298709 
" style="fill: none; stroke: #d62728; stroke-width: 1.5; stroke-linecap: square"/>
    </g>
    <g id="text_20">
     <!-- val_kl_loss -->
     <g transform="translate(435.805 71.798709) scale(0.1 -0.1)">
      <use xlink:href="#DejaVuSans-76"/>
      <use xlink:href="#DejaVuSans-61" transform="translate(59.179688 0)"/>
      <use xlink:href="#DejaVuSans-6c" transform="translate(120.458984 0)"/>
      <use xlink:href="#DejaVuSans-5f" transform="translate(148.242188 0)"/>
      <use xlink:href="#DejaVuSans-6b" transform="translate(198.242188 0)"/>
      <use xlink:href="#DejaVuSans-6c" transform="translate(256.152344 0)"/>
      <use xlink:href="#DejaVuSans-5f" transform="translate(283.935547 0)"/>
      <use xlink:href="#DejaVuSans-6c" transform="translate(333.935547 0)"/>
      <use xlink:href="#DejaVuSans-6f" transform="translate(361.71875 0)"/>
      <use xlink:href="#DejaVuSans-73" transform="translate(422.900391 0)"/>
      <use xlink:href="#DejaVuSans-73" transform="translate(475 0)"/>
     </g>
    </g>
   </g>
  </g>
 </g>
 <defs>
  <clipPath id="pf0d718f25e">
   <rect x="34.240625" y="10.331522" width="526.93" height="375.870902"/>
  </clipPath>
 </defs>
</svg>
