<?xml version="1.0" encoding="utf-8" standalone="no"?>
<!DOCTYPE svg PUBLIC "-//W3C//DTD SVG 1.1//EN"
  "http://www.w3.org/Graphics/SVG/1.1/DTD/svg11.dtd">
<svg xmlns:xlink="http://www.w3.org/1999/xlink" width="568.370625pt" height="423.034375pt" viewBox="0 0 568.370625 423.034375" xmlns="http://www.w3.org/2000/svg" version="1.1">
 <metadata>
  <rdf:RDF xmlns:dc="http://purl.org/dc/elements/1.1/" xmlns:cc="http://creativecommons.org/ns#" xmlns:rdf="http://www.w3.org/1999/02/22-rdf-syntax-ns#">
   <cc:Work>
    <dc:type rdf:resource="http://purl.org/dc/dcmitype/StillImage"/>
    <dc:date>2026-06-25T15:47:50.955777</dc:date>
    <dc:format>image/svg+xml</dc:format>
    <dc:creator>
     <cc:Agent>
      <dc:title>Matplotlib v3.10.9, https://matplotlib.org/</dc:title>
     </cc:Agent>
    </dc:creator>
   </cc:Work>
  </rdf:RDF>
 </metadata>
 <defs>
  <style type="text/css">*{stroke-linejoin: round; stroke-linecap: butt}</style>
 </defs>
 <g id="figure_1">
  <g id="patch_1">
   <path d="M 0 423.034375 
L 568.370625 423.034375 
L 568.370625 0 
L 0 0 
z
" style="fill: #ffffff"/>
  </g>
  <g id="axes_1">
   <g id="patch_2">
    <path d="M 34.240625 385.478125 
L 561.170625 385.478125 
L 561.170625 22.318125 
L 34.240625 22.318125 
z
" style="fill: #ffffff"/>
   </g>
   <g id="matplotlib.axis_1">
    <g id="xtick_1">
     <g id="line2d_1">
      <path d="M 58.191989 385.478125 
L 58.191989 22.318125 
" clip-path="url(#pbecf5c8f86)" style="fill: none; stroke-dasharray: 0.8,1.32; stroke-dashoffset: 0; stroke: #b0b0b0; stroke-opacity: 0.5; stroke-width: 0.8"/>
     </g>
     <g id="line2d_2">
      <defs>
       <path id="m4ac36b0f10" d="M 0 0 
L 0 3.5 
" style="stroke: #000000; stroke-width: 0.8"/>
      </defs>
      <g>
       <use xlink:href="#m4ac36b0f10" x="58.191989" y="385.478125" style="stroke: #000000; stroke-width: 0.8"/>
      </g>
     </g>
     <g id="text_1">
      <!-- 0 -->
      <g transform="translate(55.010739 400.076562) scale(0.1 -0.1)">
       <defs>
        <path id="DejaVuSans-30" d="M 2034 4250 
Q 1547 4250 1301 3770 
Q 1056 3291 1056 2328 
Q 1056 1369 1301 889 
Q 1547 409 2034 409 
Q 2525 409 2770 889 
Q 3016 1369 3016 2328 
Q 3016 3291 2770 3770 
Q 2525 4250 2034 4250 
z
M 2034 4750 
Q 2819 4750 3233 4129 
Q 3647 3509 3647 2328 
Q 3647 1150 3233 529 
Q 2819 -91 2034 -91 
Q 1250 -91 836 529 
Q 422 1150 422 2328 
Q 422 3509 836 4129 
Q 1250 4750 2034 4750 
z
" transform="scale(0.015625)"/>
       </defs>
       <use xlink:href="#DejaVuSans-30"/>
      </g>
     </g>
    </g>
    <g id="xtick_2">
     <g id="line2d_3">
      <path d="M 127.017746 385.478125 
L 127.017746 22.318125 
" clip-path="url(#pbecf5c8f86)" style="fill: none; stroke-dasharray: 0.8,1.32; stroke-dashoffset: 0; stroke: #b0b0b0; stroke-opacity: 0.5; stroke-width: 0.8"/>
     </g>
     <g id="line2d_4">
      <g>
       <use xlink:href="#m4ac36b0f10" x="127.017746" y="385.478125" style="stroke: #000000; stroke-width: 0.8"/>
      </g>
     </g>
     <g id="text_2">
      <!-- 25 -->
      <g transform="translate(120.655246 400.076562) scale(0.1 -0.1)">
       <defs>
        <path id="DejaVuSans-32" d="M 1228 531 
L 3431 531 
L 3431 0 
L 469 0 
L 469 531 
Q 828 903 1448 1529 
Q 2069 2156 2228 2338 
Q 2531 2678 2651 2914 
Q 2772 3150 2772 3378 
Q 2772 3750 2511 3984 
Q 2250 4219 1831 4219 
Q 1534 4219 1204 4116 
Q 875 4013 500 3803 
L 500 4441 
Q 881 4594 1212 4672 
Q 1544 4750 1819 4750 
Q 2544 4750 2975 4387 
Q 3406 4025 3406 3419 
Q 3406 3131 3298 2873 
Q 3191 2616 2906 2266 
Q 2828 2175 2409 1742 
Q 1991 1309 1228 531 
z
" transform="scale(0.015625)"/>
        <path id="DejaVuSans-35" d="M 691 4666 
L 3169 4666 
L 3169 4134 
L 1269 4134 
L 1269 2991 
Q 1406 3038 1543 3061 
Q 1681 3084 1819 3084 
Q 2600 3084 3056 2656 
Q 3513 2228 3513 1497 
Q 3513 744 3044 326 
Q 2575 -91 1722 -91 
Q 1428 -91 1123 -41 
Q 819 9 494 109 
L 494 744 
Q 775 591 1075 516 
Q 1375 441 1709 441 
Q 2250 441 2565 725 
Q 2881 1009 2881 1497 
Q 2881 1984 2565 2268 
Q 2250 2553 1709 2553 
Q 1456 2553 1204 2497 
Q 953 2441 691 2322 
L 691 4666 
z
" transform="scale(0.015625)"/>
       </defs>
       <use xlink:href="#DejaVuSans-32"/>
       <use xlink:href="#DejaVuSans-35" transform="translate(63.623047 0)"/>
      </g>
     </g>
    </g>
    <g id="xtick_3">
     <g id="line2d_5">
      <path d="M 195.843504 385.478125 
L 195.843504 22.318125 
" clip-path="url(#pbecf5c8f86)" style="fill: none; stroke-dasharray: 0.8,1.32; stroke-dashoffset: 0; stroke: #b0b0b0; stroke-opacity: 0.5; stroke-width: 0.8"/>
     </g>
     <g id="line2d_6">
      <g>
       <use xlink:href="#m4ac36b0f10" x="195.843504" y="385.478125" style="stroke: #000000; stroke-width: 0.8"/>
      </g>
     </g>
     <g id="text_3">
      <!-- 50 -->
      <g transform="translate(189.481004 400.076562) scale(0.1 -0.1)">
       <use xlink:href="#DejaVuSans-35"/>
       <use xlink:href="#DejaVuSans-30" transform="translate(63.623047 0)"/>
      </g>
     </g>
    </g>
    <g id="xtick_4">
     <g id="line2d_7">
      <path d="M 264.669261 385.478125 
L 264.669261 22.318125 
" clip-path="url(#pbecf5c8f86)" style="fill: none; stroke-dasharray: 0.8,1.32; stroke-dashoffset: 0; stroke: #b0b0b0; stroke-opacity: 0.5; stroke-width: 0.8"/>
     </g>
     <g id="line2d_8">
      <g>
       <use xlink:href="#m4ac36b0f10" x="264.669261" y="385.478125" style="stroke: #000000; stroke-width: 0.8"/>
      </g>
     </g>
     <g id="text_4">
      <!-- 75 -->
      <g transform="translate(258.306761 400.076562) scale(0.1 -0.1)">
       <defs>
        <path id="DejaVuSans-37" d="M 525 4666 
L 3525 4666 
L 3525 4397 
L 1831 0 
L 1172 0 
L 2766 4134 
L 525 4134 
L 525 4666 
z
" transform="scale(0.015625)"/>
       </defs>
       <use xlink:href="#DejaVuSans-37"/>
       <use xlink:href="#DejaVuSans-35" transform="translate(63.623047 0)"/>
      </g>
     </g>
    </g>
    <g id="xtick_5">
     <g id="line2d_9">
      <path d="M 333.495019 385.478125 
L 333.495019 22.318125 
" clip-path="url(#pbecf5c8f86)" style="fill: none; stroke-dasharray: 0.8,1.32; stroke-dashoffset: 0; stroke: #b0b0b0; stroke-opacity: 0.5; stroke-width: 0.8"/>
     </g>
     <g id="line2d_10">
      <g>
       <use xlink:href="#m4ac36b0f10" x="333.495019" y="385.478125" style="stroke: #000000; stroke-width: 0.8"/>
      </g>
     </g>
     <g id="text_5">
      <!-- 100 -->
      <g transform="translate(323.951269 400.076562) scale(0.1 -0.1)">
       <defs>
        <path id="DejaVuSans-31" d="M 794 531 
L 1825 531 
L 1825 4091 
L 703 3866 
L 703 4441 
L 1819 4666 
L 2450 4666 
L 2450 531 
L 3481 531 
L 3481 0 
L 794 0 
L 794 531 
z
" transform="scale(0.015625)"/>
       </defs>
       <use xlink:href="#DejaVuSans-31"/>
       <use xlink:href="#DejaVuSans-30" transform="translate(63.623047 0)"/>
       <use xlink:href="#DejaVuSans-30" transform="translate(127.246094 0)"/>
      </g>
     </g>
    </g>
    <g id="xtick_6">
     <g id="line2d_11">
      <path d="M 402.320777 385.478125 
L 402.320777 22.318125 
" clip-path="url(#pbecf5c8f86)" style="fill: none; stroke-dasharray: 0.8,1.32; stroke-dashoffset: 0; stroke: #b0b0b0; stroke-opacity: 0.5; stroke-width: 0.8"/>
     </g>
     <g id="line2d_12">
      <g>
       <use xlink:href="#m4ac36b0f10" x="402.320777" y="385.478125" style="stroke: #000000; stroke-width: 0.8"/>
      </g>
     </g>
     <g id="text_6">
      <!-- 125 -->
      <g transform="translate(392.777027 400.076562) scale(0.1 -0.1)">
       <use xlink:href="#DejaVuSans-31"/>
       <use xlink:href="#DejaVuSans-32" transform="translate(63.623047 0)"/>
       <use xlink:href="#DejaVuSans-35" transform="translate(127.246094 0)"/>
      </g>
     </g>
    </g>
    <g id="xtick_7">
     <g id="line2d_13">
      <path d="M 471.146534 385.478125 
L 471.146534 22.318125 
" clip-path="url(#pbecf5c8f86)" style="fill: none; stroke-dasharray: 0.8,1.32; stroke-dashoffset: 0; stroke: #b0b0b0; stroke-opacity: 0.5; stroke-width: 0.8"/>
     </g>
     <g id="line2d_14">
      <g>
       <use xlink:href="#m4ac36b0f10" x="471.146534" y="385.478125" style="stroke: #000000; stroke-width: 0.8"/>
      </g>
     </g>
     <g id="text_7">
      <!-- 150 -->
      <g transform="translate(461.602784 400.076562) scale(0.1 -0.1)">
       <use xlink:href="#DejaVuSans-31"/>
       <use xlink:href="#DejaVuSans-35" transform="translate(63.623047 0)"/>
       <use xlink:href="#DejaVuSans-30" transform="translate(127.246094 0)"/>
      </g>
     </g>
    </g>
    <g id="xtick_8">
     <g id="line2d_15">
      <path d="M 539.972292 385.478125 
L 539.972292 22.318125 
" clip-path="url(#pbecf5c8f86)" style="fill: none; stroke-dasharray: 0.8,1.32; stroke-dashoffset: 0; stroke: #b0b0b0; stroke-opacity: 0.5; stroke-width: 0.8"/>
     </g>
     <g id="line2d_16">
      <g>
       <use xlink:href="#m4ac36b0f10" x="539.972292" y="385.478125" style="stroke: #000000; stroke-width: 0.8"/>
      </g>
     </g>
     <g id="text_8">
      <!-- 175 -->
      <g transform="translate(530.428542 400.076562) scale(0.1 -0.1)">
       <use xlink:href="#DejaVuSans-31"/>
       <use xlink:href="#DejaVuSans-37" transform="translate(63.623047 0)"/>
       <use xlink:href="#DejaVuSans-35" transform="translate(127.246094 0)"/>
      </g>
     </g>
    </g>
    <g id="text_9">
     <!-- Epoch -->
     <g transform="translate(282.394687 413.754687) scale(0.1 -0.1)">
      <defs>
       <path id="DejaVuSans-45" d="M 628 4666 
L 3578 4666 
L 3578 4134 
L 1259 4134 
L 1259 2753 
L 3481 2753 
L 3481 2222 
L 1259 2222 
L 1259 531 
L 3634 531 
L 3634 0 
L 628 0 
L 628 4666 
z
" transform="scale(0.015625)"/>
       <path id="DejaVuSans-70" d="M 1159 525 
L 1159 -1331 
L 581 -1331 
L 581 3500 
L 1159 3500 
L 1159 2969 
Q 1341 3281 1617 3432 
Q 1894 3584 2278 3584 
Q 2916 3584 3314 3078 
Q 3713 2572 3713 1747 
Q 3713 922 3314 415 
Q 2916 -91 2278 -91 
Q 1894 -91 1617 61 
Q 1341 213 1159 525 
z
M 3116 1747 
Q 3116 2381 2855 2742 
Q 2594 3103 2138 3103 
Q 1681 3103 1420 2742 
Q 1159 2381 1159 1747 
Q 1159 1113 1420 752 
Q 1681 391 2138 391 
Q 2594 391 2855 752 
Q 3116 1113 3116 1747 
z
" transform="scale(0.015625)"/>
       <path id="DejaVuSans-6f" d="M 1959 3097 
Q 1497 3097 1228 2736 
Q 959 2375 959 1747 
Q 959 1119 1226 758 
Q 1494 397 1959 397 
Q 2419 397 2687 759 
Q 2956 1122 2956 1747 
Q 2956 2369 2687 2733 
Q 2419 3097 1959 3097 
z
M 1959 3584 
Q 2709 3584 3137 3096 
Q 3566 2609 3566 1747 
Q 3566 888 3137 398 
Q 2709 -91 1959 -91 
Q 1206 -91 779 398 
Q 353 888 353 1747 
Q 353 2609 779 3096 
Q 1206 3584 1959 3584 
z
" transform="scale(0.015625)"/>
       <path id="DejaVuSans-63" d="M 3122 3366 
L 3122 2828 
Q 2878 2963 2633 3030 
Q 2388 3097 2138 3097 
Q 1578 3097 1268 2742 
Q 959 2388 959 1747 
Q 959 1106 1268 751 
Q 1578 397 2138 397 
Q 2388 397 2633 464 
Q 2878 531 3122 666 
L 3122 134 
Q 2881 22 2623 -34 
Q 2366 -91 2075 -91 
Q 1284 -91 818 406 
Q 353 903 353 1747 
Q 353 2603 823 3093 
Q 1294 3584 2113 3584 
Q 2378 3584 2631 3529 
Q 2884 3475 3122 3366 
z
" transform="scale(0.015625)"/>
       <path id="DejaVuSans-68" d="M 3513 2113 
L 3513 0 
L 2938 0 
L 2938 2094 
Q 2938 2591 2744 2837 
Q 2550 3084 2163 3084 
Q 1697 3084 1428 2787 
Q 1159 2491 1159 1978 
L 1159 0 
L 581 0 
L 581 4863 
L 1159 4863 
L 1159 2956 
Q 1366 3272 1645 3428 
Q 1925 3584 2291 3584 
Q 2894 3584 3203 3211 
Q 3513 2838 3513 2113 
z
" transform="scale(0.015625)"/>
      </defs>
      <use xlink:href="#DejaVuSans-45"/>
      <use xlink:href="#DejaVuSans-70" transform="translate(63.183594 0)"/>
      <use xlink:href="#DejaVuSans-6f" transform="translate(126.660156 0)"/>
      <use xlink:href="#DejaVuSans-63" transform="translate(187.841797 0)"/>
      <use xlink:href="#DejaVuSans-68" transform="translate(242.822266 0)"/>
     </g>
    </g>
   </g>
   <g id="matplotlib.axis_2">
    <g id="ytick_1">
     <g id="line2d_17">
      <path d="M 34.240625 344.850276 
L 561.170625 344.850276 
" clip-path="url(#pbecf5c8f86)" style="fill: none; stroke-dasharray: 0.8,1.32; stroke-dashoffset: 0; stroke: #b0b0b0; stroke-opacity: 0.5; stroke-width: 0.8"/>
     </g>
     <g id="line2d_18">
      <defs>
       <path id="me8acad31bb" d="M 0 0 
L -3.5 0 
" style="stroke: #000000; stroke-width: 0.8"/>
      </defs>
      <g>
       <use xlink:href="#me8acad31bb" x="34.240625" y="344.850276" style="stroke: #000000; stroke-width: 0.8"/>
      </g>
     </g>
     <g id="text_10">
      <!-- 1 -->
      <g transform="translate(20.878125 348.649495) scale(0.1 -0.1)">
       <use xlink:href="#DejaVuSans-31"/>
      </g>
     </g>
    </g>
    <g id="ytick_2">
     <g id="line2d_19">
      <path d="M 34.240625 280.472869 
L 561.170625 280.472869 
" clip-path="url(#pbecf5c8f86)" style="fill: none; stroke-dasharray: 0.8,1.32; stroke-dashoffset: 0; stroke: #b0b0b0; stroke-opacity: 0.5; stroke-width: 0.8"/>
     </g>
     <g id="line2d_20">
      <g>
       <use xlink:href="#me8acad31bb" x="34.240625" y="280.472869" style="stroke: #000000; stroke-width: 0.8"/>
      </g>
     </g>
     <g id="text_11">
      <!-- 2 -->
      <g transform="translate(20.878125 284.272088) scale(0.1 -0.1)">
       <use xlink:href="#DejaVuSans-32"/>
      </g>
     </g>
    </g>
    <g id="ytick_3">
     <g id="line2d_21">
      <path d="M 34.240625 216.095462 
L 561.170625 216.095462 
" clip-path="url(#pbecf5c8f86)" style="fill: none; stroke-dasharray: 0.8,1.32; stroke-dashoffset: 0; stroke: #b0b0b0; stroke-opacity: 0.5; stroke-width: 0.8"/>
     </g>
     <g id="line2d_22">
      <g>
       <use xlink:href="#me8acad31bb" x="34.240625" y="216.095462" style="stroke: #000000; stroke-width: 0.8"/>
      </g>
     </g>
     <g id="text_12">
      <!-- 3 -->
      <g transform="translate(20.878125 219.894681) scale(0.1 -0.1)">
       <defs>
        <path id="DejaVuSans-33" d="M 2597 2516 
Q 3050 2419 3304 2112 
Q 3559 1806 3559 1356 
Q 3559 666 3084 287 
Q 2609 -91 1734 -91 
Q 1441 -91 1130 -33 
Q 819 25 488 141 
L 488 750 
Q 750 597 1062 519 
Q 1375 441 1716 441 
Q 2309 441 2620 675 
Q 2931 909 2931 1356 
Q 2931 1769 2642 2001 
Q 2353 2234 1838 2234 
L 1294 2234 
L 1294 2753 
L 1863 2753 
Q 2328 2753 2575 2939 
Q 2822 3125 2822 3475 
Q 2822 3834 2567 4026 
Q 2313 4219 1838 4219 
Q 1578 4219 1281 4162 
Q 984 4106 628 3988 
L 628 4550 
Q 988 4650 1302 4700 
Q 1616 4750 1894 4750 
Q 2613 4750 3031 4423 
Q 3450 4097 3450 3541 
Q 3450 3153 3228 2886 
Q 3006 2619 2597 2516 
z
" transform="scale(0.015625)"/>
       </defs>
       <use xlink:href="#DejaVuSans-33"/>
      </g>
     </g>
    </g>
    <g id="ytick_4">
     <g id="line2d_23">
      <path d="M 34.240625 151.718056 
L 561.170625 151.718056 
" clip-path="url(#pbecf5c8f86)" style="fill: none; stroke-dasharray: 0.8,1.32; stroke-dashoffset: 0; stroke: #b0b0b0; stroke-opacity: 0.5; stroke-width: 0.8"/>
     </g>
     <g id="line2d_24">
      <g>
       <use xlink:href="#me8acad31bb" x="34.240625" y="151.718056" style="stroke: #000000; stroke-width: 0.8"/>
      </g>
     </g>
     <g id="text_13">
      <!-- 4 -->
      <g transform="translate(20.878125 155.517274) scale(0.1 -0.1)">
       <defs>
        <path id="DejaVuSans-34" d="M 2419 4116 
L 825 1625 
L 2419 1625 
L 2419 4116 
z
M 2253 4666 
L 3047 4666 
L 3047 1625 
L 3713 1625 
L 3713 1100 
L 3047 1100 
L 3047 0 
L 2419 0 
L 2419 1100 
L 313 1100 
L 313 1709 
L 2253 4666 
z
" transform="scale(0.015625)"/>
       </defs>
       <use xlink:href="#DejaVuSans-34"/>
      </g>
     </g>
    </g>
    <g id="ytick_5">
     <g id="line2d_25">
      <path d="M 34.240625 87.340649 
L 561.170625 87.340649 
" clip-path="url(#pbecf5c8f86)" style="fill: none; stroke-dasharray: 0.8,1.32; stroke-dashoffset: 0; stroke: #b0b0b0; stroke-opacity: 0.5; stroke-width: 0.8"/>
     </g>
     <g id="line2d_26">
      <g>
       <use xlink:href="#me8acad31bb" x="34.240625" y="87.340649" style="stroke: #000000; stroke-width: 0.8"/>
      </g>
     </g>
     <g id="text_14">
      <!-- 5 -->
      <g transform="translate(20.878125 91.139868) scale(0.1 -0.1)">
       <use xlink:href="#DejaVuSans-35"/>
      </g>
     </g>
    </g>
    <g id="ytick_6">
     <g id="line2d_27">
      <path d="M 34.240625 22.963242 
L 561.170625 22.963242 
" clip-path="url(#pbecf5c8f86)" style="fill: none; stroke-dasharray: 0.8,1.32; stroke-dashoffset: 0; stroke: #b0b0b0; stroke-opacity: 0.5; stroke-width: 0.8"/>
     </g>
     <g id="line2d_28">
      <g>
       <use xlink:href="#me8acad31bb" x="34.240625" y="22.963242" style="stroke: #000000; stroke-width: 0.8"/>
      </g>
     </g>
     <g id="text_15">
      <!-- 6 -->
      <g transform="translate(20.878125 26.762461) scale(0.1 -0.1)">
       <defs>
        <path id="DejaVuSans-36" d="M 2113 2584 
Q 1688 2584 1439 2293 
Q 1191 2003 1191 1497 
Q 1191 994 1439 701 
Q 1688 409 2113 409 
Q 2538 409 2786 701 
Q 3034 994 3034 1497 
Q 3034 2003 2786 2293 
Q 2538 2584 2113 2584 
z
M 3366 4563 
L 3366 3988 
Q 3128 4100 2886 4159 
Q 2644 4219 2406 4219 
Q 1781 4219 1451 3797 
Q 1122 3375 1075 2522 
Q 1259 2794 1537 2939 
Q 1816 3084 2150 3084 
Q 2853 3084 3261 2657 
Q 3669 2231 3669 1497 
Q 3669 778 3244 343 
Q 2819 -91 2113 -91 
Q 1303 -91 875 529 
Q 447 1150 447 2328 
Q 447 3434 972 4092 
Q 1497 4750 2381 4750 
Q 2619 4750 2861 4703 
Q 3103 4656 3366 4563 
z
" transform="scale(0.015625)"/>
       </defs>
       <use xlink:href="#DejaVuSans-36"/>
      </g>
     </g>
    </g>
    <g id="text_16">
     <!-- Loss -->
     <g transform="translate(14.798438 214.865312) rotate(-90) scale(0.1 -0.1)">
      <defs>
       <path id="DejaVuSans-4c" d="M 628 4666 
L 1259 4666 
L 1259 531 
L 3531 531 
L 3531 0 
L 628 0 
L 628 4666 
z
" transform="scale(0.015625)"/>
       <path id="DejaVuSans-73" d="M 2834 3397 
L 2834 2853 
Q 2591 2978 2328 3040 
Q 2066 3103 1784 3103 
Q 1356 3103 1142 2972 
Q 928 2841 928 2578 
Q 928 2378 1081 2264 
Q 1234 2150 1697 2047 
L 1894 2003 
Q 2506 1872 2764 1633 
Q 3022 1394 3022 966 
Q 3022 478 2636 193 
Q 2250 -91 1575 -91 
Q 1294 -91 989 -36 
Q 684 19 347 128 
L 347 722 
Q 666 556 975 473 
Q 1284 391 1588 391 
Q 1994 391 2212 530 
Q 2431 669 2431 922 
Q 2431 1156 2273 1281 
Q 2116 1406 1581 1522 
L 1381 1569 
Q 847 1681 609 1914 
Q 372 2147 372 2553 
Q 372 3047 722 3315 
Q 1072 3584 1716 3584 
Q 2034 3584 2315 3537 
Q 2597 3491 2834 3397 
z
" transform="scale(0.015625)"/>
      </defs>
      <use xlink:href="#DejaVuSans-4c"/>
      <use xlink:href="#DejaVuSans-6f" transform="translate(53.962891 0)"/>
      <use xlink:href="#DejaVuSans-73" transform="translate(115.144531 0)"/>
      <use xlink:href="#DejaVuSans-73" transform="translate(167.244141 0)"/>
     </g>
    </g>
   </g>
   <g id="line2d_29">
    <path d="M 58.191989 38.825398 
L 60.945019 57.096113 
L 63.698049 64.704928 
L 66.45108 69.634462 
L 69.20411 86.822075 
L 71.95714 98.645294 
L 74.71017 116.298528 
L 80.216231 169.381681 
L 82.969261 178.256386 
L 85.722292 190.917386 
L 88.475322 206.057045 
L 91.228352 209.75332 
L 93.981383 223.839147 
L 96.734413 223.43882 
L 99.487443 237.434473 
L 102.240473 239.998485 
L 104.993504 235.242991 
L 107.746534 238.068884 
L 110.499564 243.833391 
L 113.252595 246.900965 
L 116.005625 240.823512 
L 118.758655 241.002863 
L 121.511686 238.887557 
L 124.264716 235.780475 
L 127.017746 235.310296 
L 129.770777 242.013364 
L 132.523807 235.854655 
L 135.276837 239.994126 
L 138.029867 218.185857 
L 140.782898 218.357395 
L 143.535928 222.629526 
L 146.288958 205.040726 
L 149.041989 218.94906 
L 151.795019 210.623933 
L 154.548049 189.039449 
L 157.30108 196.432537 
L 160.05411 198.531144 
L 162.80714 195.569506 
L 165.56017 208.805595 
L 168.313201 184.958564 
L 171.066231 188.71737 
L 173.819261 169.738049 
L 176.572292 170.666726 
L 179.325322 190.748703 
L 182.078352 184.391304 
L 184.831383 189.62261 
L 187.584413 184.163298 
L 190.337443 183.11949 
L 193.090473 164.410046 
L 195.843504 182.001102 
L 198.596534 186.064965 
L 201.349564 172.407921 
L 204.102595 173.585156 
L 206.855625 168.328479 
L 209.608655 181.922946 
L 212.361686 173.990778 
L 215.114716 165.282071 
L 217.867746 160.169641 
L 220.620777 187.538324 
L 223.373807 183.527276 
L 226.126837 169.139953 
L 228.879867 172.402165 
L 231.632898 184.787195 
L 234.385928 173.519019 
L 237.138958 180.510383 
L 239.891989 174.28437 
L 242.645019 167.676264 
L 245.398049 165.352307 
L 248.15108 168.547399 
L 250.90411 166.888181 
L 253.65714 176.607989 
L 256.41017 169.334008 
L 259.163201 161.66722 
L 261.916231 176.361319 
L 264.669261 166.786281 
L 267.422292 173.249755 
L 270.175322 179.232813 
L 272.928352 187.441228 
L 275.681383 156.344144 
L 278.434413 174.41683 
L 281.187443 159.683745 
L 283.940473 166.657259 
L 286.693504 159.568353 
L 289.446534 178.4117 
L 292.199564 164.158786 
L 294.952595 164.337431 
L 297.705625 161.589034 
L 300.458655 183.54307 
L 303.211686 166.43395 
L 305.964716 179.237387 
L 308.717746 183.284244 
L 311.470777 167.81207 
L 314.223807 171.336823 
L 316.976837 175.741827 
L 319.729867 171.705853 
L 322.482898 160.0818 
L 325.235928 164.813749 
L 327.988958 163.715222 
L 330.741989 181.814016 
L 333.495019 150.183854 
L 336.248049 161.742168 
L 339.00108 162.713055 
L 341.75411 174.427221 
L 344.50714 169.82942 
L 347.26017 171.247769 
L 350.013201 160.05761 
L 355.519261 162.514872 
L 358.272292 163.226134 
L 361.025322 158.498467 
L 363.778352 171.494025 
L 366.531383 164.637545 
L 369.284413 166.131702 
L 372.037443 168.631157 
L 374.790473 156.432584 
L 377.543504 160.337649 
L 380.296534 163.631863 
L 383.049564 166.57743 
L 385.802595 167.576036 
L 388.555625 154.97795 
L 391.308655 172.240036 
L 396.814716 155.939167 
L 399.567746 188.160486 
L 402.320777 163.427172 
L 405.073807 155.911508 
L 407.826837 162.444497 
L 410.579867 163.635854 
L 413.332898 165.628124 
L 416.085928 177.260097 
L 418.838958 166.437449 
L 421.591989 180.881716 
L 424.345019 184.2549 
L 427.098049 183.198736 
L 429.85108 176.661602 
L 432.60411 167.376379 
L 435.35714 165.53554 
L 438.11017 176.055925 
L 440.863201 163.283906 
L 443.616231 169.344767 
L 446.369261 168.10319 
L 449.122292 176.223472 
L 451.875322 153.457348 
L 454.628352 178.327757 
L 457.381383 161.178991 
L 460.134413 177.906234 
L 462.887443 164.122456 
L 465.640473 177.165303 
L 468.393504 159.81797 
L 471.146534 163.538834 
L 473.899564 154.269543 
L 476.652595 162.062789 
L 479.405625 186.108417 
L 482.158655 165.945629 
L 484.911686 170.382206 
L 487.664716 169.520111 
L 490.417746 179.378795 
L 493.170777 167.493076 
L 495.923807 162.654315 
L 498.676837 168.2504 
L 501.429867 175.464644 
L 504.182898 171.870776 
L 506.935928 180.059222 
L 509.688958 165.190515 
L 512.441989 173.681347 
L 515.195019 163.268742 
L 517.948049 166.535113 
L 520.70108 158.966528 
L 523.45411 154.23134 
L 526.20714 165.6779 
L 528.96017 157.226514 
L 531.713201 158.266746 
L 534.466231 181.22163 
L 537.219261 150.931523 
L 537.219261 150.931523 
" clip-path="url(#pbecf5c8f86)" style="fill: none; stroke: #1f77b4; stroke-width: 1.5; stroke-linecap: square"/>
   </g>
   <g id="line2d_30">
    <path d="M 58.191989 48.137159 
L 60.945019 57.945299 
L 63.698049 62.416181 
L 66.45108 69.848362 
L 71.95714 97.981982 
L 74.71017 116.794601 
L 77.463201 134.155563 
L 80.216231 150.360518 
L 82.969261 169.273902 
L 85.722292 173.164462 
L 88.475322 191.595265 
L 91.228352 199.414864 
L 93.981383 221.021512 
L 96.734413 222.919065 
L 99.487443 222.083846 
L 102.240473 223.488642 
L 104.993504 223.34771 
L 107.746534 227.518677 
L 110.499564 239.572219 
L 113.252595 235.650486 
L 116.005625 238.468443 
L 118.758655 229.230479 
L 121.511686 231.068479 
L 124.264716 236.271835 
L 127.017746 239.697343 
L 129.770777 213.981937 
L 132.523807 231.533224 
L 135.276837 225.139618 
L 138.029867 224.930153 
L 140.782898 194.187334 
L 143.535928 220.204067 
L 146.288958 215.620955 
L 149.041989 201.274015 
L 151.795019 213.459142 
L 154.548049 200.882391 
L 157.30108 201.400796 
L 160.05411 182.94964 
L 162.80714 199.465822 
L 165.56017 191.728154 
L 168.313201 187.506 
L 171.066231 171.884114 
L 173.819261 188.042147 
L 176.572292 166.674296 
L 179.325322 182.686655 
L 182.078352 175.823636 
L 184.831383 183.308525 
L 187.584413 169.731065 
L 190.337443 161.490756 
L 193.090473 176.527163 
L 195.843504 178.44163 
L 198.596534 194.073846 
L 201.349564 168.184615 
L 204.102595 165.723777 
L 206.855625 161.5147 
L 209.608655 181.823946 
L 212.361686 183.966236 
L 215.114716 143.511989 
L 217.867746 144.050424 
L 220.620777 181.889194 
L 223.373807 171.140113 
L 226.126837 162.993676 
L 228.879867 185.132573 
L 231.632898 162.742218 
L 234.385928 155.623259 
L 237.138958 158.762205 
L 239.891989 167.525861 
L 242.645019 164.656915 
L 245.398049 165.620419 
L 248.15108 170.582354 
L 250.90411 148.979221 
L 253.65714 177.585614 
L 256.41017 160.067556 
L 259.163201 154.034231 
L 261.916231 169.863218 
L 264.669261 157.241525 
L 267.422292 158.093812 
L 270.175322 155.206478 
L 272.928352 159.697682 
L 275.681383 169.849696 
L 278.434413 161.195215 
L 281.187443 154.240565 
L 283.940473 173.568135 
L 286.693504 151.743796 
L 289.446534 153.584742 
L 292.199564 162.622528 
L 294.952595 167.241694 
L 297.705625 153.366514 
L 300.458655 173.396597 
L 303.211686 163.327113 
L 305.964716 152.268662 
L 308.717746 159.941481 
L 311.470777 166.513027 
L 314.223807 177.811732 
L 316.976837 145.105161 
L 319.729867 159.475447 
L 322.482898 155.769271 
L 325.235928 161.698517 
L 327.988958 159.021614 
L 330.741989 165.112006 
L 333.495019 167.190153 
L 336.248049 165.000236 
L 339.00108 164.514755 
L 341.75411 159.375649 
L 344.50714 155.721982 
L 347.26017 160.129043 
L 350.013201 172.711996 
L 352.766231 160.472702 
L 355.519261 163.248067 
L 358.272292 155.616198 
L 361.025322 151.289518 
L 363.778352 147.876289 
L 366.531383 151.021222 
L 369.284413 172.801111 
L 372.037443 162.453906 
L 374.790473 154.750758 
L 377.543504 156.206435 
L 380.296534 158.496272 
L 383.049564 160.282623 
L 385.802595 164.773182 
L 388.555625 150.96041 
L 391.308655 170.562631 
L 394.061686 141.513088 
L 396.814716 155.201459 
L 399.567746 156.022449 
L 402.320777 165.204789 
L 405.073807 157.139257 
L 407.826837 166.15629 
L 410.579867 155.308517 
L 413.332898 157.189631 
L 416.085928 152.915505 
L 418.838958 163.388616 
L 421.591989 159.942387 
L 424.345019 170.292845 
L 427.098049 167.725886 
L 429.85108 163.03125 
L 432.60411 162.635666 
L 435.35714 166.189812 
L 438.11017 172.395335 
L 440.863201 150.980824 
L 443.616231 156.297008 
L 446.369261 175.926289 
L 449.122292 150.53399 
L 451.875322 164.852535 
L 454.628352 168.092185 
L 457.381383 157.15548 
L 460.134413 162.561271 
L 462.887443 163.216679 
L 465.640473 164.17544 
L 468.393504 160.953656 
L 471.146534 169.295083 
L 473.899564 171.72114 
L 476.652595 146.112654 
L 479.405625 142.741205 
L 482.158655 157.729708 
L 484.911686 159.326963 
L 487.664716 160.14826 
L 490.417746 163.52106 
L 493.170777 160.590028 
L 495.923807 165.515817 
L 498.676837 162.191611 
L 501.429867 171.309256 
L 504.182898 152.202263 
L 506.935928 170.839507 
L 509.688958 159.337738 
L 512.441989 175.475311 
L 515.195019 144.159707 
L 517.948049 157.923456 
L 520.70108 161.1127 
L 523.45411 175.309974 
L 526.20714 171.562066 
L 528.96017 166.126898 
L 531.713201 154.848437 
L 534.466231 157.059474 
L 537.219261 161.767479 
L 537.219261 161.767479 
" clip-path="url(#pbecf5c8f86)" style="fill: none; stroke: #ff7f0e; stroke-width: 1.5; stroke-linecap: square"/>
   </g>
   <g id="line2d_31">
    <path d="M 58.191989 368.970852 
L 60.945019 365.041525 
L 63.698049 355.523634 
L 66.45108 343.805032 
L 69.20411 326.72344 
L 71.95714 294.332969 
L 74.71017 257.836273 
L 77.463201 198.332715 
L 80.216231 165.245095 
L 82.969261 171.988547 
L 85.722292 162.197229 
L 88.475322 143.394694 
L 91.228352 126.948825 
L 93.981383 118.242419 
L 96.734413 127.46614 
L 99.487443 133.896814 
L 102.240473 137.148297 
L 104.993504 144.056625 
L 107.746534 146.606608 
L 110.499564 145.322315 
L 113.252595 144.207227 
L 116.005625 159.36185 
L 118.758655 166.973689 
L 121.511686 172.685427 
L 124.264716 171.283025 
L 127.017746 171.232482 
L 129.770777 176.896193 
L 132.523807 186.621419 
L 135.276837 191.819311 
L 138.029867 201.038227 
L 140.782898 206.796717 
L 143.535928 208.600044 
L 146.288958 216.43688 
L 149.041989 222.151059 
L 151.795019 227.023157 
L 154.548049 233.038233 
L 157.30108 237.05301 
L 160.05411 242.266159 
L 162.80714 246.584888 
L 165.56017 253.343842 
L 168.313201 256.71546 
L 171.066231 261.955069 
L 173.819261 264.259733 
L 176.572292 265.206645 
L 179.325322 264.216634 
L 182.078352 265.611592 
L 184.831383 267.649417 
L 187.584413 269.970995 
L 190.337443 271.177255 
L 193.090473 273.456164 
L 195.843504 274.16365 
L 198.596534 274.055426 
L 201.349564 276.321027 
L 204.102595 276.545395 
L 206.855625 277.786236 
L 209.608655 277.524862 
L 212.361686 277.406338 
L 215.114716 277.967397 
L 217.867746 279.429076 
L 220.620777 278.464314 
L 223.373807 279.302034 
L 226.126837 279.135976 
L 228.879867 280.419179 
L 231.632898 279.869279 
L 234.385928 280.593104 
L 237.138958 281.051556 
L 239.891989 281.633205 
L 242.645019 281.39751 
L 245.398049 282.429945 
L 248.15108 283.161505 
L 250.90411 283.146456 
L 253.65714 282.778208 
L 259.163201 285.677422 
L 261.916231 285.096755 
L 264.669261 286.625792 
L 267.422292 286.836837 
L 270.175322 285.791755 
L 272.928352 286.144869 
L 275.681383 287.842381 
L 278.434413 287.459176 
L 281.187443 288.01207 
L 283.940473 289.386391 
L 286.693504 288.230866 
L 289.446534 288.146732 
L 292.199564 288.907931 
L 294.952595 288.340073 
L 300.458655 288.722112 
L 303.211686 290.180797 
L 305.964716 289.955216 
L 308.717746 287.707427 
L 314.223807 289.120197 
L 316.976837 288.633657 
L 319.729867 289.481523 
L 325.235928 289.117565 
L 327.988958 289.459727 
L 330.741989 288.052698 
L 333.495019 288.54458 
L 336.248049 289.253616 
L 339.00108 288.975481 
L 341.75411 288.847987 
L 344.50714 288.07236 
L 347.26017 288.893434 
L 350.013201 289.299141 
L 352.766231 290.280403 
L 355.519261 288.587019 
L 358.272292 289.88277 
L 361.025322 288.803621 
L 363.778352 289.240447 
L 366.531383 288.8886 
L 369.284413 290.325122 
L 374.790473 290.80725 
L 377.543504 290.66182 
L 380.296534 289.540009 
L 383.049564 289.409614 
L 385.802595 291.246194 
L 388.555625 290.862628 
L 391.308655 289.906691 
L 394.061686 289.647535 
L 396.814716 290.067976 
L 399.567746 289.239204 
L 402.320777 290.144198 
L 405.073807 290.370186 
L 407.826837 289.148692 
L 413.332898 289.950581 
L 416.085928 290.942772 
L 418.838958 290.655251 
L 421.591989 289.394142 
L 424.345019 289.742014 
L 427.098049 289.537193 
L 429.85108 290.333141 
L 432.60411 289.366345 
L 435.35714 290.129156 
L 438.11017 290.651813 
L 440.863201 289.863899 
L 443.616231 290.248086 
L 446.369261 290.90298 
L 449.122292 290.947852 
L 451.875322 290.323648 
L 457.381383 290.438595 
L 460.134413 291.078401 
L 462.887443 290.941014 
L 465.640473 290.022352 
L 468.393504 290.029696 
L 471.146534 290.657438 
L 473.899564 291.021902 
L 476.652595 291.258189 
L 479.405625 290.961175 
L 482.158655 291.055063 
L 484.911686 290.976907 
L 487.664716 289.257177 
L 490.417746 291.165091 
L 493.170777 291.26673 
L 495.923807 291.083504 
L 498.676837 290.599665 
L 501.429867 291.024611 
L 504.182898 290.914161 
L 506.935928 291.263852 
L 509.688958 289.943805 
L 512.441989 291.269961 
L 515.195019 289.801383 
L 517.948049 290.363233 
L 520.70108 290.500896 
L 523.45411 291.873552 
L 526.20714 290.489108 
L 528.96017 289.831244 
L 531.713201 291.302808 
L 534.466231 291.041487 
L 537.219261 290.923831 
L 537.219261 290.923831 
" clip-path="url(#pbecf5c8f86)" style="fill: none; stroke: #2ca02c; stroke-width: 1.5; stroke-linecap: square"/>
   </g>
   <g id="line2d_32">
    <path d="M 58.191989 368.361487 
L 60.945019 364.057036 
L 63.698049 355.642288 
L 66.45108 343.67113 
L 69.20411 324.820814 
L 71.95714 294.63623 
L 74.71017 250.731635 
L 77.463201 208.863966 
L 80.216231 189.020186 
L 82.969261 188.212887 
L 85.722292 176.503203 
L 88.475322 153.412069 
L 91.228352 134.303556 
L 93.981383 130.390756 
L 96.734413 136.349762 
L 99.487443 143.571236 
L 102.240473 146.047483 
L 104.993504 148.82472 
L 107.746534 149.475815 
L 110.499564 147.292729 
L 113.252595 151.455561 
L 116.005625 159.794578 
L 118.758655 170.675168 
L 121.511686 172.528716 
L 124.264716 171.246296 
L 127.017746 171.865588 
L 129.770777 181.047452 
L 135.276837 194.11498 
L 138.029867 204.406054 
L 140.782898 207.542161 
L 143.535928 209.475369 
L 146.288958 219.405701 
L 149.041989 224.980957 
L 151.795019 228.501474 
L 154.548049 234.559265 
L 157.30108 238.342814 
L 160.05411 244.06086 
L 162.80714 248.697969 
L 168.313201 259.237493 
L 171.066231 263.052292 
L 173.819261 264.391717 
L 176.572292 264.690589 
L 179.325322 265.339734 
L 182.078352 266.6486 
L 184.831383 268.409427 
L 187.584413 271.057765 
L 190.337443 273.514903 
L 193.090473 274.607874 
L 195.843504 275.254103 
L 198.596534 276.052285 
L 204.102595 277.421503 
L 206.855625 278.47231 
L 209.608655 278.863765 
L 212.361686 278.993785 
L 217.867746 279.760395 
L 220.620777 279.91399 
L 231.632898 281.982589 
L 237.138958 282.51576 
L 239.891989 283.062437 
L 245.398049 283.837342 
L 248.15108 284.398056 
L 250.90411 284.822841 
L 256.41017 286.527207 
L 259.163201 287.06908 
L 261.916231 287.34908 
L 264.669261 287.380844 
L 267.422292 287.641735 
L 270.175322 288.02682 
L 275.681383 288.975704 
L 281.187443 289.411893 
L 283.940473 289.477946 
L 289.446534 289.988408 
L 292.199564 290.246828 
L 294.952595 290.334983 
L 305.964716 289.978339 
L 314.223807 290.814863 
L 319.729867 290.822399 
L 322.482898 290.793743 
L 327.988958 290.464964 
L 336.248049 290.342228 
L 341.75411 290.33958 
L 344.50714 290.459462 
L 350.013201 290.87074 
L 355.519261 290.984551 
L 363.778352 291.126888 
L 369.284413 291.369298 
L 385.802595 291.586215 
L 391.308655 291.503454 
L 394.061686 291.590704 
L 399.567746 291.570037 
L 405.073807 291.655829 
L 421.591989 291.617204 
L 432.60411 291.740854 
L 443.616231 291.853345 
L 457.381383 292.168847 
L 465.640473 292.364467 
L 495.923807 292.495399 
L 517.948049 292.501646 
L 537.219261 292.526596 
L 537.219261 292.526596 
" clip-path="url(#pbecf5c8f86)" style="fill: none; stroke: #d62728; stroke-width: 1.5; stroke-linecap: square"/>
   </g>
   <g id="patch_3">
    <path d="M 34.240625 385.478125 
L 34.240625 22.318125 
" style="fill: none; stroke: #000000; stroke-width: 0.8; stroke-linejoin: miter; stroke-linecap: square"/>
   </g>
   <g id="patch_4">
    <path d="M 561.170625 385.478125 
L 561.170625 22.318125 
" style="fill: none; stroke: #000000; stroke-width: 0.8; stroke-linejoin: miter; stroke-linecap: square"/>
   </g>
   <g id="patch_5">
    <path d="M 34.240625 385.478125 
L 561.170625 385.478125 
" style="fill: none; stroke: #000000; stroke-width: 0.8; stroke-linejoin: miter; stroke-linecap: square"/>
   </g>
   <g id="patch_6">
    <path d="M 34.240625 22.318125 
L 561.170625 22.318125 
" style="fill: none; stroke: #000000; stroke-width: 0.8; stroke-linejoin: miter; stroke-linecap: square"/>
   </g>
   <g id="text_17">
    <!-- Reconstruction Loss and KL Divergence -->
    <g transform="translate(179.262812 16.318125) scale(0.12 -0.12)">
     <defs>
      <path id="DejaVuSans-52" d="M 2841 2188 
Q 3044 2119 3236 1894 
Q 3428 1669 3622 1275 
L 4263 0 
L 3584 0 
L 2988 1197 
Q 2756 1666 2539 1819 
Q 2322 1972 1947 1972 
L 1259 1972 
L 1259 0 
L 628 0 
L 628 4666 
L 2053 4666 
Q 2853 4666 3247 4331 
Q 3641 3997 3641 3322 
Q 3641 2881 3436 2590 
Q 3231 2300 2841 2188 
z
M 1259 4147 
L 1259 2491 
L 2053 2491 
Q 2509 2491 2742 2702 
Q 2975 2913 2975 3322 
Q 2975 3731 2742 3939 
Q 2509 4147 2053 4147 
L 1259 4147 
z
" transform="scale(0.015625)"/>
      <path id="DejaVuSans-65" d="M 3597 1894 
L 3597 1613 
L 953 1613 
Q 991 1019 1311 708 
Q 1631 397 2203 397 
Q 2534 397 2845 478 
Q 3156 559 3463 722 
L 3463 178 
Q 3153 47 2828 -22 
Q 2503 -91 2169 -91 
Q 1331 -91 842 396 
Q 353 884 353 1716 
Q 353 2575 817 3079 
Q 1281 3584 2069 3584 
Q 2775 3584 3186 3129 
Q 3597 2675 3597 1894 
z
M 3022 2063 
Q 3016 2534 2758 2815 
Q 2500 3097 2075 3097 
Q 1594 3097 1305 2825 
Q 1016 2553 972 2059 
L 3022 2063 
z
" transform="scale(0.015625)"/>
      <path id="DejaVuSans-6e" d="M 3513 2113 
L 3513 0 
L 2938 0 
L 2938 2094 
Q 2938 2591 2744 2837 
Q 2550 3084 2163 3084 
Q 1697 3084 1428 2787 
Q 1159 2491 1159 1978 
L 1159 0 
L 581 0 
L 581 3500 
L 1159 3500 
L 1159 2956 
Q 1366 3272 1645 3428 
Q 1925 3584 2291 3584 
Q 2894 3584 3203 3211 
Q 3513 2838 3513 2113 
z
" transform="scale(0.015625)"/>
      <path id="DejaVuSans-74" d="M 1172 4494 
L 1172 3500 
L 2356 3500 
L 2356 3053 
L 1172 3053 
L 1172 1153 
Q 1172 725 1289 603 
Q 1406 481 1766 481 
L 2356 481 
L 2356 0 
L 1766 0 
Q 1100 0 847 248 
Q 594 497 594 1153 
L 594 3053 
L 172 3053 
L 172 3500 
L 594 3500 
L 594 4494 
L 1172 4494 
z
" transform="scale(0.015625)"/>
      <path id="DejaVuSans-72" d="M 2631 2963 
Q 2534 3019 2420 3045 
Q 2306 3072 2169 3072 
Q 1681 3072 1420 2755 
Q 1159 2438 1159 1844 
L 1159 0 
L 581 0 
L 581 3500 
L 1159 3500 
L 1159 2956 
Q 1341 3275 1631 3429 
Q 1922 3584 2338 3584 
Q 2397 3584 2469 3576 
Q 2541 3569 2628 3553 
L 2631 2963 
z
" transform="scale(0.015625)"/>
      <path id="DejaVuSans-75" d="M 544 1381 
L 544 3500 
L 1119 3500 
L 1119 1403 
Q 1119 906 1312 657 
Q 1506 409 1894 409 
Q 2359 409 2629 706 
Q 2900 1003 2900 1516 
L 2900 3500 
L 3475 3500 
L 3475 0 
L 2900 0 
L 2900 538 
Q 2691 219 2414 64 
Q 2138 -91 1772 -91 
Q 1169 -91 856 284 
Q 544 659 544 1381 
z
M 1991 3584 
L 1991 3584 
z
" transform="scale(0.015625)"/>
      <path id="DejaVuSans-69" d="M 603 3500 
L 1178 3500 
L 1178 0 
L 603 0 
L 603 3500 
z
M 603 4863 
L 1178 4863 
L 1178 4134 
L 603 4134 
L 603 4863 
z
" transform="scale(0.015625)"/>
      <path id="DejaVuSans-20" transform="scale(0.015625)"/>
      <path id="DejaVuSans-61" d="M 2194 1759 
Q 1497 1759 1228 1600 
Q 959 1441 959 1056 
Q 959 750 1161 570 
Q 1363 391 1709 391 
Q 2188 391 2477 730 
Q 2766 1069 2766 1631 
L 2766 1759 
L 2194 1759 
z
M 3341 1997 
L 3341 0 
L 2766 0 
L 2766 531 
Q 2569 213 2275 61 
Q 1981 -91 1556 -91 
Q 1019 -91 701 211 
Q 384 513 384 1019 
Q 384 1609 779 1909 
Q 1175 2209 1959 2209 
L 2766 2209 
L 2766 2266 
Q 2766 2663 2505 2880 
Q 2244 3097 1772 3097 
Q 1472 3097 1187 3025 
Q 903 2953 641 2809 
L 641 3341 
Q 956 3463 1253 3523 
Q 1550 3584 1831 3584 
Q 2591 3584 2966 3190 
Q 3341 2797 3341 1997 
z
" transform="scale(0.015625)"/>
      <path id="DejaVuSans-64" d="M 2906 2969 
L 2906 4863 
L 3481 4863 
L 3481 0 
L 2906 0 
L 2906 525 
Q 2725 213 2448 61 
Q 2172 -91 1784 -91 
Q 1150 -91 751 415 
Q 353 922 353 1747 
Q 353 2572 751 3078 
Q 1150 3584 1784 3584 
Q 2172 3584 2448 3432 
Q 2725 3281 2906 2969 
z
M 947 1747 
Q 947 1113 1208 752 
Q 1469 391 1925 391 
Q 2381 391 2643 752 
Q 2906 1113 2906 1747 
Q 2906 2381 2643 2742 
Q 2381 3103 1925 3103 
Q 1469 3103 1208 2742 
Q 947 2381 947 1747 
z
" transform="scale(0.015625)"/>
      <path id="DejaVuSans-4b" d="M 628 4666 
L 1259 4666 
L 1259 2694 
L 3353 4666 
L 4166 4666 
L 1850 2491 
L 4331 0 
L 3500 0 
L 1259 2247 
L 1259 0 
L 628 0 
L 628 4666 
z
" transform="scale(0.015625)"/>
      <path id="DejaVuSans-44" d="M 1259 4147 
L 1259 519 
L 2022 519 
Q 2988 519 3436 956 
Q 3884 1394 3884 2338 
Q 3884 3275 3436 3711 
Q 2988 4147 2022 4147 
L 1259 4147 
z
M 628 4666 
L 1925 4666 
Q 3281 4666 3915 4102 
Q 4550 3538 4550 2338 
Q 4550 1131 3912 565 
Q 3275 0 1925 0 
L 628 0 
L 628 4666 
z
" transform="scale(0.015625)"/>
      <path id="DejaVuSans-76" d="M 191 3500 
L 800 3500 
L 1894 563 
L 2988 3500 
L 3597 3500 
L 2284 0 
L 1503 0 
L 191 3500 
z
" transform="scale(0.015625)"/>
      <path id="DejaVuSans-67" d="M 2906 1791 
Q 2906 2416 2648 2759 
Q 2391 3103 1925 3103 
Q 1463 3103 1205 2759 
Q 947 2416 947 1791 
Q 947 1169 1205 825 
Q 1463 481 1925 481 
Q 2391 481 2648 825 
Q 2906 1169 2906 1791 
z
M 3481 434 
Q 3481 -459 3084 -895 
Q 2688 -1331 1869 -1331 
Q 1566 -1331 1297 -1286 
Q 1028 -1241 775 -1147 
L 775 -588 
Q 1028 -725 1275 -790 
Q 1522 -856 1778 -856 
Q 2344 -856 2625 -561 
Q 2906 -266 2906 331 
L 2906 616 
Q 2728 306 2450 153 
Q 2172 0 1784 0 
Q 1141 0 747 490 
Q 353 981 353 1791 
Q 353 2603 747 3093 
Q 1141 3584 1784 3584 
Q 2172 3584 2450 3431 
Q 2728 3278 2906 2969 
L 2906 3500 
L 3481 3500 
L 3481 434 
z
" transform="scale(0.015625)"/>
     </defs>
     <use xlink:href="#DejaVuSans-52"/>
     <use xlink:href="#DejaVuSans-65" transform="translate(64.982422 0)"/>
     <use xlink:href="#DejaVuSans-63" transform="translate(126.505859 0)"/>
     <use xlink:href="#DejaVuSans-6f" transform="translate(181.486328 0)"/>
     <use xlink:href="#DejaVuSans-6e" transform="translate(242.667969 0)"/>
     <use xlink:href="#DejaVuSans-73" transform="translate(306.046875 0)"/>
     <use xlink:href="#DejaVuSans-74" transform="translate(358.146484 0)"/>
     <use xlink:href="#DejaVuSans-72" transform="translate(397.355469 0)"/>
     <use xlink:href="#DejaVuSans-75" transform="translate(438.46875 0)"/>
     <use xlink:href="#DejaVuSans-63" transform="translate(501.847656 0)"/>
     <use xlink:href="#DejaVuSans-74" transform="translate(556.828125 0)"/>
     <use xlink:href="#DejaVuSans-69" transform="translate(596.037109 0)"/>
     <use xlink:href="#DejaVuSans-6f" transform="translate(623.820312 0)"/>
     <use xlink:href="#DejaVuSans-6e" transform="translate(685.001953 0)"/>
     <use xlink:href="#DejaVuSans-20" transform="translate(748.380859 0)"/>
     <use xlink:href="#DejaVuSans-4c" transform="translate(780.167969 0)"/>
     <use xlink:href="#DejaVuSans-6f" transform="translate(834.130859 0)"/>
     <use xlink:href="#DejaVuSans-73" transform="translate(895.3125 0)"/>
     <use xlink:href="#DejaVuSans-73" transform="translate(947.412109 0)"/>
     <use xlink:href="#DejaVuSans-20" transform="translate(999.511719 0)"/>
     <use xlink:href="#DejaVuSans-61" transform="translate(1031.298828 0)"/>
     <use xlink:href="#DejaVuSans-6e" transform="translate(1092.578125 0)"/>
     <use xlink:href="#DejaVuSans-64" transform="translate(1155.957031 0)"/>
     <use xlink:href="#DejaVuSans-20" transform="translate(1219.433594 0)"/>
     <use xlink:href="#DejaVuSans-4b" transform="translate(1251.220703 0)"/>
     <use xlink:href="#DejaVuSans-4c" transform="translate(1316.796875 0)"/>
     <use xlink:href="#DejaVuSans-20" transform="translate(1372.509766 0)"/>
     <use xlink:href="#DejaVuSans-44" transform="translate(1404.296875 0)"/>
     <use xlink:href="#DejaVuSans-69" transform="translate(1481.298828 0)"/>
     <use xlink:href="#DejaVuSans-76" transform="translate(1509.082031 0)"/>
     <use xlink:href="#DejaVuSans-65" transform="translate(1568.261719 0)"/>
     <use xlink:href="#DejaVuSans-72" transform="translate(1629.785156 0)"/>
     <use xlink:href="#DejaVuSans-67" transform="translate(1669.148438 0)"/>
     <use xlink:href="#DejaVuSans-65" transform="translate(1732.625 0)"/>
     <use xlink:href="#DejaVuSans-6e" transform="translate(1794.148438 0)"/>
     <use xlink:href="#DejaVuSans-63" transform="translate(1857.527344 0)"/>
     <use xlink:href="#DejaVuSans-65" transform="translate(1912.507812 0)"/>
    </g>
   </g>
   <g id="legend_1">
    <g id="patch_7">
     <path d="M 405.805 90.143125 
L 554.170625 90.143125 
Q 556.170625 90.143125 556.170625 88.143125 
L 556.170625 29.318125 
Q 556.170625 27.318125 554.170625 27.318125 
L 405.805 27.318125 
Q 403.805 27.318125 403.805 29.318125 
L 403.805 88.143125 
Q 403.805 90.143125 405.805 90.143125 
z
" style="fill: #ffffff; opacity: 0.8; stroke: #cccccc; stroke-linejoin: miter"/>
    </g>
    <g id="line2d_33">
     <path d="M 407.805 35.416562 
L 417.805 35.416562 
L 427.805 35.416562 
" style="fill: none; stroke: #1f77b4; stroke-width: 1.5; stroke-linecap: square"/>
    </g>
    <g id="text_18">
     <!-- reconstruction_loss -->
     <g transform="translate(435.805 38.916562) scale(0.1 -0.1)">
      <defs>
       <path id="DejaVuSans-5f" d="M 3263 -1063 
L 3263 -1509 
L -63 -1509 
L -63 -1063 
L 3263 -1063 
z
" transform="scale(0.015625)"/>
       <path id="DejaVuSans-6c" d="M 603 4863 
L 1178 4863 
L 1178 0 
L 603 0 
L 603 4863 
z
" transform="scale(0.015625)"/>
      </defs>
      <use xlink:href="#DejaVuSans-72"/>
      <use xlink:href="#DejaVuSans-65" transform="translate(38.863281 0)"/>
      <use xlink:href="#DejaVuSans-63" transform="translate(100.386719 0)"/>
      <use xlink:href="#DejaVuSans-6f" transform="translate(155.367188 0)"/>
      <use xlink:href="#DejaVuSans-6e" transform="translate(216.548828 0)"/>
      <use xlink:href="#DejaVuSans-73" transform="translate(279.927734 0)"/>
      <use xlink:href="#DejaVuSans-74" transform="translate(332.027344 0)"/>
      <use xlink:href="#DejaVuSans-72" transform="translate(371.236328 0)"/>
      <use xlink:href="#DejaVuSans-75" transform="translate(412.349609 0)"/>
      <use xlink:href="#DejaVuSans-63" transform="translate(475.728516 0)"/>
      <use xlink:href="#DejaVuSans-74" transform="translate(530.708984 0)"/>
      <use xlink:href="#DejaVuSans-69" transform="translate(569.917969 0)"/>
      <use xlink:href="#DejaVuSans-6f" transform="translate(597.701172 0)"/>
      <use xlink:href="#DejaVuSans-6e" transform="translate(658.882812 0)"/>
      <use xlink:href="#DejaVuSans-5f" transform="translate(722.261719 0)"/>
      <use xlink:href="#DejaVuSans-6c" transform="translate(772.261719 0)"/>
      <use xlink:href="#DejaVuSans-6f" transform="translate(800.044922 0)"/>
      <use xlink:href="#DejaVuSans-73" transform="translate(861.226562 0)"/>
      <use xlink:href="#DejaVuSans-73" transform="translate(913.326172 0)"/>
     </g>
    </g>
    <g id="line2d_34">
     <path d="M 407.805 50.372812 
L 417.805 50.372812 
L 427.805 50.372812 
" style="fill: none; stroke: #ff7f0e; stroke-width: 1.5; stroke-linecap: square"/>
    </g>
    <g id="text_19">
     <!-- val_reconstruction_loss -->
     <g transform="translate(435.805 53.872812) scale(0.1 -0.1)">
      <use xlink:href="#DejaVuSans-76"/>
      <use xlink:href="#DejaVuSans-61" transform="translate(59.179688 0)"/>
      <use xlink:href="#DejaVuSans-6c" transform="translate(120.458984 0)"/>
      <use xlink:href="#DejaVuSans-5f" transform="translate(148.242188 0)"/>
      <use xlink:href="#DejaVuSans-72" transform="translate(198.242188 0)"/>
      <use xlink:href="#DejaVuSans-65" transform="translate(237.105469 0)"/>
      <use xlink:href="#DejaVuSans-63" transform="translate(298.628906 0)"/>
      <use xlink:href="#DejaVuSans-6f" transform="translate(353.609375 0)"/>
      <use xlink:href="#DejaVuSans-6e" transform="translate(414.791016 0)"/>
      <use xlink:href="#DejaVuSans-73" transform="translate(478.169922 0)"/>
      <use xlink:href="#DejaVuSans-74" transform="translate(530.269531 0)"/>
      <use xlink:href="#DejaVuSans-72" transform="translate(569.478516 0)"/>
      <use xlink:href="#DejaVuSans-75" transform="translate(610.591797 0)"/>
      <use xlink:href="#DejaVuSans-63" transform="translate(673.970703 0)"/>
      <use xlink:href="#DejaVuSans-74" transform="translate(728.951172 0)"/>
      <use xlink:href="#DejaVuSans-69" transform="translate(768.160156 0)"/>
      <use xlink:href="#DejaVuSans-6f" transform="translate(795.943359 0)"/>
      <use xlink:href="#DejaVuSans-6e" transform="translate(857.125 0)"/>
      <use xlink:href="#DejaVuSans-5f" transform="translate(920.503906 0)"/>
      <use xlink:href="#DejaVuSans-6c" transform="translate(970.503906 0)"/>
      <use xlink:href="#DejaVuSans-6f" transform="translate(998.287109 0)"/>
      <use xlink:href="#DejaVuSans-73" transform="translate(1059.46875 0)"/>
      <use xlink:href="#DejaVuSans-73" transform="translate(1111.568359 0)"/>
     </g>
    </g>
    <g id="line2d_35">
     <path d="M 407.805 65.329062 
L 417.805 65.329062 
L 427.805 65.329062 
" style="fill: none; stroke: #2ca02c; stroke-width: 1.5; stroke-linecap: square"/>
    </g>
    <g id="text_20">
     <!-- kl_loss -->
     <g transform="translate(435.805 68.829062) scale(0.1 -0.1)">
      <defs>
       <path id="DejaVuSans-6b" d="M 581 4863 
L 1159 4863 
L 1159 1991 
L 2875 3500 
L 3609 3500 
L 1753 1863 
L 3688 0 
L 2938 0 
L 1159 1709 
L 1159 0 
L 581 0 
L 581 4863 
z
" transform="scale(0.015625)"/>
      </defs>
      <use xlink:href="#DejaVuSans-6b"/>
      <use xlink:href="#DejaVuSans-6c" transform="translate(57.910156 0)"/>
      <use xlink:href="#DejaVuSans-5f" transform="translate(85.693359 0)"/>
      <use xlink:href="#DejaVuSans-6c" transform="translate(135.693359 0)"/>
      <use xlink:href="#DejaVuSans-6f" transform="translate(163.476562 0)"/>
      <use xlink:href="#DejaVuSans-73" transform="translate(224.658203 0)"/>
      <use xlink:href="#DejaVuSans-73" transform="translate(276.757812 0)"/>
     </g>
    </g>
    <g id="line2d_36">
     <path d="M 407.805 80.285312 
L 417.805 80.285312 
L 427.805 80.285312 
" style="fill: none; stroke: #d62728; stroke-width: 1.5; stroke-linecap: square"/>
    </g>
    <g id="text_21">
     <!-- val_kl_loss -->
     <g transform="translate(435.805 83.785312) scale(0.1 -0.1)">
      <use xlink:href="#DejaVuSans-76"/>
      <use xlink:href="#DejaVuSans-61" transform="translate(59.179688 0)"/>
      <use xlink:href="#DejaVuSans-6c" transform="translate(120.458984 0)"/>
      <use xlink:href="#DejaVuSans-5f" transform="translate(148.242188 0)"/>
      <use xlink:href="#DejaVuSans-6b" transform="translate(198.242188 0)"/>
      <use xlink:href="#DejaVuSans-6c" transform="translate(256.152344 0)"/>
      <use xlink:href="#DejaVuSans-5f" transform="translate(283.935547 0)"/>
      <use xlink:href="#DejaVuSans-6c" transform="translate(333.935547 0)"/>
      <use xlink:href="#DejaVuSans-6f" transform="translate(361.71875 0)"/>
      <use xlink:href="#DejaVuSans-73" transform="translate(422.900391 0)"/>
      <use xlink:href="#DejaVuSans-73" transform="translate(475 0)"/>
     </g>
    </g>
   </g>
  </g>
 </g>
 <defs>
  <clipPath id="pbecf5c8f86">
   <rect x="34.240625" y="22.318125" width="526.93" height="363.16"/>
  </clipPath>
 </defs>
</svg>
